<mxfile host="app.diagrams.net" modified="2023-04-17T07:19:59.738Z" agent="Mozilla/5.0 (Windows NT 10.0; Win64; x64) AppleWebKit/537.36 (KHTML, like Gecko) Chrome/112.0.0.0 Safari/537.36 Edg/112.0.1722.39" etag="L1e32bSB7mgKtXgkRw0r" version="21.1.5" type="device">
  <diagram name="Page-1" id="OsHZTMU2ku3RHN0ZhJmU">
    <mxGraphModel dx="2949" dy="2816" grid="1" gridSize="12" guides="1" tooltips="1" connect="1" arrows="1" fold="1" page="1" pageScale="1" pageWidth="850" pageHeight="1100" math="0" shadow="0">
      <root>
        <mxCell id="0" />
        <mxCell id="1" parent="0" />
        <mxCell id="FC5HgXKpZtwlYjMmK-62-143" value="" style="rounded=0;whiteSpace=wrap;html=1;" parent="1" vertex="1">
          <mxGeometry x="-1560" y="-420" width="1176" height="744" as="geometry" />
        </mxCell>
        <mxCell id="FC5HgXKpZtwlYjMmK-62-3" value="" style="group" parent="1" vertex="1" connectable="0">
          <mxGeometry x="-36" y="-1860" width="1020" height="1932" as="geometry" />
        </mxCell>
        <mxCell id="FC5HgXKpZtwlYjMmK-62-6" value="" style="group" parent="FC5HgXKpZtwlYjMmK-62-3" vertex="1" connectable="0">
          <mxGeometry x="-1536" y="552" width="1284" height="828" as="geometry" />
        </mxCell>
        <mxCell id="FC5HgXKpZtwlYjMmK-62-5" value="" style="rounded=0;whiteSpace=wrap;html=1;" parent="FC5HgXKpZtwlYjMmK-62-6" vertex="1">
          <mxGeometry x="15.952727272727273" y="-20.962025316455694" width="1268.0472727272727" height="828" as="geometry" />
        </mxCell>
        <mxCell id="FC5HgXKpZtwlYjMmK-62-2" value="&lt;b style=&quot;border-color: var(--border-color);&quot;&gt;&lt;font style=&quot;font-size: 30px;&quot;&gt;Status and Mess 8085 Database&lt;/font&gt;&lt;/b&gt;" style="text;html=1;strokeColor=none;fillColor=none;align=center;verticalAlign=middle;whiteSpace=wrap;rounded=0;" parent="FC5HgXKpZtwlYjMmK-62-6" vertex="1">
          <mxGeometry x="145.70212765957447" y="10.484172369935191" width="832.3185271966528" height="52.062200956937794" as="geometry" />
        </mxCell>
        <mxCell id="FC5HgXKpZtwlYjMmK-62-7" value="MessEntity" style="shape=table;startSize=30;container=1;collapsible=1;childLayout=tableLayout;fixedRows=1;rowLines=0;fontStyle=1;align=center;resizeLast=1;html=1;" parent="FC5HgXKpZtwlYjMmK-62-6" vertex="1">
          <mxGeometry x="471.87524822695036" y="62.54708860759494" width="250.1295744680851" height="180" as="geometry" />
        </mxCell>
        <mxCell id="FC5HgXKpZtwlYjMmK-62-8" value="" style="shape=tableRow;horizontal=0;startSize=0;swimlaneHead=0;swimlaneBody=0;fillColor=none;collapsible=0;dropTarget=0;points=[[0,0.5],[1,0.5]];portConstraint=eastwest;top=0;left=0;right=0;bottom=1;" parent="FC5HgXKpZtwlYjMmK-62-7" vertex="1">
          <mxGeometry y="30" width="250.1295744680851" height="30" as="geometry" />
        </mxCell>
        <mxCell id="FC5HgXKpZtwlYjMmK-62-9" value="PK" style="shape=partialRectangle;connectable=0;fillColor=none;top=0;left=0;bottom=0;right=0;fontStyle=1;overflow=hidden;whiteSpace=wrap;html=1;" parent="FC5HgXKpZtwlYjMmK-62-8" vertex="1">
          <mxGeometry width="30" height="30" as="geometry">
            <mxRectangle width="30" height="30" as="alternateBounds" />
          </mxGeometry>
        </mxCell>
        <mxCell id="FC5HgXKpZtwlYjMmK-62-10" value="int id" style="shape=partialRectangle;connectable=0;fillColor=none;top=0;left=0;bottom=0;right=0;align=left;spacingLeft=6;fontStyle=5;overflow=hidden;whiteSpace=wrap;html=1;" parent="FC5HgXKpZtwlYjMmK-62-8" vertex="1">
          <mxGeometry x="30" width="220.1295744680851" height="30" as="geometry">
            <mxRectangle width="220.1295744680851" height="30" as="alternateBounds" />
          </mxGeometry>
        </mxCell>
        <mxCell id="FC5HgXKpZtwlYjMmK-62-14" value="" style="shape=tableRow;horizontal=0;startSize=0;swimlaneHead=0;swimlaneBody=0;fillColor=none;collapsible=0;dropTarget=0;points=[[0,0.5],[1,0.5]];portConstraint=eastwest;top=0;left=0;right=0;bottom=0;" parent="FC5HgXKpZtwlYjMmK-62-7" vertex="1">
          <mxGeometry y="60" width="250.1295744680851" height="30" as="geometry" />
        </mxCell>
        <mxCell id="FC5HgXKpZtwlYjMmK-62-15" value="" style="shape=partialRectangle;connectable=0;fillColor=none;top=0;left=0;bottom=0;right=0;editable=1;overflow=hidden;whiteSpace=wrap;html=1;" parent="FC5HgXKpZtwlYjMmK-62-14" vertex="1">
          <mxGeometry width="30" height="30" as="geometry">
            <mxRectangle width="30" height="30" as="alternateBounds" />
          </mxGeometry>
        </mxCell>
        <mxCell id="FC5HgXKpZtwlYjMmK-62-16" value="String detail" style="shape=partialRectangle;connectable=0;fillColor=none;top=0;left=0;bottom=0;right=0;align=left;spacingLeft=6;overflow=hidden;whiteSpace=wrap;html=1;" parent="FC5HgXKpZtwlYjMmK-62-14" vertex="1">
          <mxGeometry x="30" width="220.1295744680851" height="30" as="geometry">
            <mxRectangle width="220.1295744680851" height="30" as="alternateBounds" />
          </mxGeometry>
        </mxCell>
        <mxCell id="FC5HgXKpZtwlYjMmK-62-17" value="" style="shape=tableRow;horizontal=0;startSize=0;swimlaneHead=0;swimlaneBody=0;fillColor=none;collapsible=0;dropTarget=0;points=[[0,0.5],[1,0.5]];portConstraint=eastwest;top=0;left=0;right=0;bottom=0;" parent="FC5HgXKpZtwlYjMmK-62-7" vertex="1">
          <mxGeometry y="90" width="250.1295744680851" height="30" as="geometry" />
        </mxCell>
        <mxCell id="FC5HgXKpZtwlYjMmK-62-18" value="" style="shape=partialRectangle;connectable=0;fillColor=none;top=0;left=0;bottom=0;right=0;editable=1;overflow=hidden;whiteSpace=wrap;html=1;" parent="FC5HgXKpZtwlYjMmK-62-17" vertex="1">
          <mxGeometry width="30" height="30" as="geometry">
            <mxRectangle width="30" height="30" as="alternateBounds" />
          </mxGeometry>
        </mxCell>
        <mxCell id="FC5HgXKpZtwlYjMmK-62-19" value="Date time&amp;nbsp;" style="shape=partialRectangle;connectable=0;fillColor=none;top=0;left=0;bottom=0;right=0;align=left;spacingLeft=6;overflow=hidden;whiteSpace=wrap;html=1;" parent="FC5HgXKpZtwlYjMmK-62-17" vertex="1">
          <mxGeometry x="30" width="220.1295744680851" height="30" as="geometry">
            <mxRectangle width="220.1295744680851" height="30" as="alternateBounds" />
          </mxGeometry>
        </mxCell>
        <mxCell id="FC5HgXKpZtwlYjMmK-62-45" value="" style="shape=tableRow;horizontal=0;startSize=0;swimlaneHead=0;swimlaneBody=0;fillColor=none;collapsible=0;dropTarget=0;points=[[0,0.5],[1,0.5]];portConstraint=eastwest;top=0;left=0;right=0;bottom=1;" parent="FC5HgXKpZtwlYjMmK-62-7" vertex="1">
          <mxGeometry y="120" width="250.1295744680851" height="30" as="geometry" />
        </mxCell>
        <mxCell id="FC5HgXKpZtwlYjMmK-62-46" value="FK" style="shape=partialRectangle;connectable=0;fillColor=none;top=0;left=0;bottom=0;right=0;fontStyle=1;overflow=hidden;whiteSpace=wrap;html=1;" parent="FC5HgXKpZtwlYjMmK-62-45" vertex="1">
          <mxGeometry width="30" height="30" as="geometry">
            <mxRectangle width="30" height="30" as="alternateBounds" />
          </mxGeometry>
        </mxCell>
        <mxCell id="FC5HgXKpZtwlYjMmK-62-47" value="int fromuser_id" style="shape=partialRectangle;connectable=0;fillColor=none;top=0;left=0;bottom=0;right=0;align=left;spacingLeft=6;fontStyle=5;overflow=hidden;whiteSpace=wrap;html=1;" parent="FC5HgXKpZtwlYjMmK-62-45" vertex="1">
          <mxGeometry x="30" width="220.1295744680851" height="30" as="geometry">
            <mxRectangle width="220.1295744680851" height="30" as="alternateBounds" />
          </mxGeometry>
        </mxCell>
        <mxCell id="FC5HgXKpZtwlYjMmK-62-48" value="" style="shape=tableRow;horizontal=0;startSize=0;swimlaneHead=0;swimlaneBody=0;fillColor=none;collapsible=0;dropTarget=0;points=[[0,0.5],[1,0.5]];portConstraint=eastwest;top=0;left=0;right=0;bottom=1;" parent="FC5HgXKpZtwlYjMmK-62-7" vertex="1">
          <mxGeometry y="150" width="250.1295744680851" height="30" as="geometry" />
        </mxCell>
        <mxCell id="FC5HgXKpZtwlYjMmK-62-49" value="FK" style="shape=partialRectangle;connectable=0;fillColor=none;top=0;left=0;bottom=0;right=0;fontStyle=1;overflow=hidden;whiteSpace=wrap;html=1;" parent="FC5HgXKpZtwlYjMmK-62-48" vertex="1">
          <mxGeometry width="30" height="30" as="geometry">
            <mxRectangle width="30" height="30" as="alternateBounds" />
          </mxGeometry>
        </mxCell>
        <mxCell id="FC5HgXKpZtwlYjMmK-62-50" value="int touser_id" style="shape=partialRectangle;connectable=0;fillColor=none;top=0;left=0;bottom=0;right=0;align=left;spacingLeft=6;fontStyle=5;overflow=hidden;whiteSpace=wrap;html=1;" parent="FC5HgXKpZtwlYjMmK-62-48" vertex="1">
          <mxGeometry x="30" width="220.1295744680851" height="30" as="geometry">
            <mxRectangle width="220.1295744680851" height="30" as="alternateBounds" />
          </mxGeometry>
        </mxCell>
        <mxCell id="FC5HgXKpZtwlYjMmK-62-51" value="ReactionEntity" style="shape=table;startSize=30;container=1;collapsible=1;childLayout=tableLayout;fixedRows=1;rowLines=0;fontStyle=1;align=center;resizeLast=1;html=1;" parent="FC5HgXKpZtwlYjMmK-62-6" vertex="1">
          <mxGeometry x="94.09567375886525" y="419.99620253164557" width="250.1295744680851" height="90" as="geometry" />
        </mxCell>
        <mxCell id="FC5HgXKpZtwlYjMmK-62-52" value="" style="shape=tableRow;horizontal=0;startSize=0;swimlaneHead=0;swimlaneBody=0;fillColor=none;collapsible=0;dropTarget=0;points=[[0,0.5],[1,0.5]];portConstraint=eastwest;top=0;left=0;right=0;bottom=1;" parent="FC5HgXKpZtwlYjMmK-62-51" vertex="1">
          <mxGeometry y="30" width="250.1295744680851" height="30" as="geometry" />
        </mxCell>
        <mxCell id="FC5HgXKpZtwlYjMmK-62-53" value="PK" style="shape=partialRectangle;connectable=0;fillColor=none;top=0;left=0;bottom=0;right=0;fontStyle=1;overflow=hidden;whiteSpace=wrap;html=1;" parent="FC5HgXKpZtwlYjMmK-62-52" vertex="1">
          <mxGeometry width="30" height="30" as="geometry">
            <mxRectangle width="30" height="30" as="alternateBounds" />
          </mxGeometry>
        </mxCell>
        <mxCell id="FC5HgXKpZtwlYjMmK-62-54" value="int id" style="shape=partialRectangle;connectable=0;fillColor=none;top=0;left=0;bottom=0;right=0;align=left;spacingLeft=6;fontStyle=5;overflow=hidden;whiteSpace=wrap;html=1;" parent="FC5HgXKpZtwlYjMmK-62-52" vertex="1">
          <mxGeometry x="30" width="220.1295744680851" height="30" as="geometry">
            <mxRectangle width="220.1295744680851" height="30" as="alternateBounds" />
          </mxGeometry>
        </mxCell>
        <mxCell id="FC5HgXKpZtwlYjMmK-62-55" value="" style="shape=tableRow;horizontal=0;startSize=0;swimlaneHead=0;swimlaneBody=0;fillColor=none;collapsible=0;dropTarget=0;points=[[0,0.5],[1,0.5]];portConstraint=eastwest;top=0;left=0;right=0;bottom=0;" parent="FC5HgXKpZtwlYjMmK-62-51" vertex="1">
          <mxGeometry y="60" width="250.1295744680851" height="30" as="geometry" />
        </mxCell>
        <mxCell id="FC5HgXKpZtwlYjMmK-62-56" value="" style="shape=partialRectangle;connectable=0;fillColor=none;top=0;left=0;bottom=0;right=0;editable=1;overflow=hidden;whiteSpace=wrap;html=1;" parent="FC5HgXKpZtwlYjMmK-62-55" vertex="1">
          <mxGeometry width="30" height="30" as="geometry">
            <mxRectangle width="30" height="30" as="alternateBounds" />
          </mxGeometry>
        </mxCell>
        <mxCell id="FC5HgXKpZtwlYjMmK-62-57" value="String detail" style="shape=partialRectangle;connectable=0;fillColor=none;top=0;left=0;bottom=0;right=0;align=left;spacingLeft=6;overflow=hidden;whiteSpace=wrap;html=1;" parent="FC5HgXKpZtwlYjMmK-62-55" vertex="1">
          <mxGeometry x="30" width="220.1295744680851" height="30" as="geometry">
            <mxRectangle width="220.1295744680851" height="30" as="alternateBounds" />
          </mxGeometry>
        </mxCell>
        <mxCell id="FC5HgXKpZtwlYjMmK-62-67" value="StatusEntity" style="shape=table;startSize=30;container=1;collapsible=1;childLayout=tableLayout;fixedRows=1;rowLines=0;fontStyle=1;align=center;resizeLast=1;html=1;" parent="FC5HgXKpZtwlYjMmK-62-6" vertex="1">
          <mxGeometry x="412.8226950354609" y="440.2025316455696" width="250.1295744680851" height="150" as="geometry" />
        </mxCell>
        <mxCell id="FC5HgXKpZtwlYjMmK-62-68" value="" style="shape=tableRow;horizontal=0;startSize=0;swimlaneHead=0;swimlaneBody=0;fillColor=none;collapsible=0;dropTarget=0;points=[[0,0.5],[1,0.5]];portConstraint=eastwest;top=0;left=0;right=0;bottom=1;" parent="FC5HgXKpZtwlYjMmK-62-67" vertex="1">
          <mxGeometry y="30" width="250.1295744680851" height="30" as="geometry" />
        </mxCell>
        <mxCell id="FC5HgXKpZtwlYjMmK-62-69" value="PK" style="shape=partialRectangle;connectable=0;fillColor=none;top=0;left=0;bottom=0;right=0;fontStyle=1;overflow=hidden;whiteSpace=wrap;html=1;" parent="FC5HgXKpZtwlYjMmK-62-68" vertex="1">
          <mxGeometry width="30" height="30" as="geometry">
            <mxRectangle width="30" height="30" as="alternateBounds" />
          </mxGeometry>
        </mxCell>
        <mxCell id="FC5HgXKpZtwlYjMmK-62-70" value="int id" style="shape=partialRectangle;connectable=0;fillColor=none;top=0;left=0;bottom=0;right=0;align=left;spacingLeft=6;fontStyle=5;overflow=hidden;whiteSpace=wrap;html=1;" parent="FC5HgXKpZtwlYjMmK-62-68" vertex="1">
          <mxGeometry x="30" width="220.1295744680851" height="30" as="geometry">
            <mxRectangle width="220.1295744680851" height="30" as="alternateBounds" />
          </mxGeometry>
        </mxCell>
        <mxCell id="FC5HgXKpZtwlYjMmK-62-71" value="" style="shape=tableRow;horizontal=0;startSize=0;swimlaneHead=0;swimlaneBody=0;fillColor=none;collapsible=0;dropTarget=0;points=[[0,0.5],[1,0.5]];portConstraint=eastwest;top=0;left=0;right=0;bottom=0;" parent="FC5HgXKpZtwlYjMmK-62-67" vertex="1">
          <mxGeometry y="60" width="250.1295744680851" height="30" as="geometry" />
        </mxCell>
        <mxCell id="FC5HgXKpZtwlYjMmK-62-72" value="" style="shape=partialRectangle;connectable=0;fillColor=none;top=0;left=0;bottom=0;right=0;editable=1;overflow=hidden;whiteSpace=wrap;html=1;" parent="FC5HgXKpZtwlYjMmK-62-71" vertex="1">
          <mxGeometry width="30" height="30" as="geometry">
            <mxRectangle width="30" height="30" as="alternateBounds" />
          </mxGeometry>
        </mxCell>
        <mxCell id="FC5HgXKpZtwlYjMmK-62-73" value="String detail" style="shape=partialRectangle;connectable=0;fillColor=none;top=0;left=0;bottom=0;right=0;align=left;spacingLeft=6;overflow=hidden;whiteSpace=wrap;html=1;" parent="FC5HgXKpZtwlYjMmK-62-71" vertex="1">
          <mxGeometry x="30" width="220.1295744680851" height="30" as="geometry">
            <mxRectangle width="220.1295744680851" height="30" as="alternateBounds" />
          </mxGeometry>
        </mxCell>
        <mxCell id="FC5HgXKpZtwlYjMmK-62-74" value="" style="shape=tableRow;horizontal=0;startSize=0;swimlaneHead=0;swimlaneBody=0;fillColor=none;collapsible=0;dropTarget=0;points=[[0,0.5],[1,0.5]];portConstraint=eastwest;top=0;left=0;right=0;bottom=0;" parent="FC5HgXKpZtwlYjMmK-62-67" vertex="1">
          <mxGeometry y="90" width="250.1295744680851" height="30" as="geometry" />
        </mxCell>
        <mxCell id="FC5HgXKpZtwlYjMmK-62-75" value="" style="shape=partialRectangle;connectable=0;fillColor=none;top=0;left=0;bottom=0;right=0;editable=1;overflow=hidden;whiteSpace=wrap;html=1;" parent="FC5HgXKpZtwlYjMmK-62-74" vertex="1">
          <mxGeometry width="30" height="30" as="geometry">
            <mxRectangle width="30" height="30" as="alternateBounds" />
          </mxGeometry>
        </mxCell>
        <mxCell id="FC5HgXKpZtwlYjMmK-62-76" value="Date created&amp;nbsp;" style="shape=partialRectangle;connectable=0;fillColor=none;top=0;left=0;bottom=0;right=0;align=left;spacingLeft=6;overflow=hidden;whiteSpace=wrap;html=1;" parent="FC5HgXKpZtwlYjMmK-62-74" vertex="1">
          <mxGeometry x="30" width="220.1295744680851" height="30" as="geometry">
            <mxRectangle width="220.1295744680851" height="30" as="alternateBounds" />
          </mxGeometry>
        </mxCell>
        <mxCell id="FC5HgXKpZtwlYjMmK-62-80" value="" style="shape=tableRow;horizontal=0;startSize=0;swimlaneHead=0;swimlaneBody=0;fillColor=none;collapsible=0;dropTarget=0;points=[[0,0.5],[1,0.5]];portConstraint=eastwest;top=0;left=0;right=0;bottom=1;" parent="FC5HgXKpZtwlYjMmK-62-67" vertex="1">
          <mxGeometry y="120" width="250.1295744680851" height="30" as="geometry" />
        </mxCell>
        <mxCell id="FC5HgXKpZtwlYjMmK-62-81" value="FK" style="shape=partialRectangle;connectable=0;fillColor=none;top=0;left=0;bottom=0;right=0;fontStyle=1;overflow=hidden;whiteSpace=wrap;html=1;" parent="FC5HgXKpZtwlYjMmK-62-80" vertex="1">
          <mxGeometry width="30" height="30" as="geometry">
            <mxRectangle width="30" height="30" as="alternateBounds" />
          </mxGeometry>
        </mxCell>
        <mxCell id="FC5HgXKpZtwlYjMmK-62-82" value="int user_id" style="shape=partialRectangle;connectable=0;fillColor=none;top=0;left=0;bottom=0;right=0;align=left;spacingLeft=6;fontStyle=5;overflow=hidden;whiteSpace=wrap;html=1;" parent="FC5HgXKpZtwlYjMmK-62-80" vertex="1">
          <mxGeometry x="30" width="220.1295744680851" height="30" as="geometry">
            <mxRectangle width="220.1295744680851" height="30" as="alternateBounds" />
          </mxGeometry>
        </mxCell>
        <mxCell id="FC5HgXKpZtwlYjMmK-62-83" value="ReactionStatusEntity" style="shape=table;startSize=30;container=1;collapsible=1;childLayout=tableLayout;fixedRows=1;rowLines=0;fontStyle=1;align=center;resizeLast=1;html=1;" parent="FC5HgXKpZtwlYjMmK-62-6" vertex="1">
          <mxGeometry x="722.0005673758865" y="260.2053164556962" width="250.1295744680851" height="180" as="geometry" />
        </mxCell>
        <mxCell id="FC5HgXKpZtwlYjMmK-62-84" value="" style="shape=tableRow;horizontal=0;startSize=0;swimlaneHead=0;swimlaneBody=0;fillColor=none;collapsible=0;dropTarget=0;points=[[0,0.5],[1,0.5]];portConstraint=eastwest;top=0;left=0;right=0;bottom=1;" parent="FC5HgXKpZtwlYjMmK-62-83" vertex="1">
          <mxGeometry y="30" width="250.1295744680851" height="30" as="geometry" />
        </mxCell>
        <mxCell id="FC5HgXKpZtwlYjMmK-62-85" value="PK" style="shape=partialRectangle;connectable=0;fillColor=none;top=0;left=0;bottom=0;right=0;fontStyle=1;overflow=hidden;whiteSpace=wrap;html=1;" parent="FC5HgXKpZtwlYjMmK-62-84" vertex="1">
          <mxGeometry width="30" height="30" as="geometry">
            <mxRectangle width="30" height="30" as="alternateBounds" />
          </mxGeometry>
        </mxCell>
        <mxCell id="FC5HgXKpZtwlYjMmK-62-86" value="int id" style="shape=partialRectangle;connectable=0;fillColor=none;top=0;left=0;bottom=0;right=0;align=left;spacingLeft=6;fontStyle=5;overflow=hidden;whiteSpace=wrap;html=1;" parent="FC5HgXKpZtwlYjMmK-62-84" vertex="1">
          <mxGeometry x="30" width="220.1295744680851" height="30" as="geometry">
            <mxRectangle width="220.1295744680851" height="30" as="alternateBounds" />
          </mxGeometry>
        </mxCell>
        <mxCell id="FC5HgXKpZtwlYjMmK-62-90" value="" style="shape=tableRow;horizontal=0;startSize=0;swimlaneHead=0;swimlaneBody=0;fillColor=none;collapsible=0;dropTarget=0;points=[[0,0.5],[1,0.5]];portConstraint=eastwest;top=0;left=0;right=0;bottom=0;" parent="FC5HgXKpZtwlYjMmK-62-83" vertex="1">
          <mxGeometry y="60" width="250.1295744680851" height="30" as="geometry" />
        </mxCell>
        <mxCell id="FC5HgXKpZtwlYjMmK-62-91" value="" style="shape=partialRectangle;connectable=0;fillColor=none;top=0;left=0;bottom=0;right=0;editable=1;overflow=hidden;whiteSpace=wrap;html=1;" parent="FC5HgXKpZtwlYjMmK-62-90" vertex="1">
          <mxGeometry width="30" height="30" as="geometry">
            <mxRectangle width="30" height="30" as="alternateBounds" />
          </mxGeometry>
        </mxCell>
        <mxCell id="FC5HgXKpZtwlYjMmK-62-92" value="Date created&amp;nbsp;" style="shape=partialRectangle;connectable=0;fillColor=none;top=0;left=0;bottom=0;right=0;align=left;spacingLeft=6;overflow=hidden;whiteSpace=wrap;html=1;" parent="FC5HgXKpZtwlYjMmK-62-90" vertex="1">
          <mxGeometry x="30" width="220.1295744680851" height="30" as="geometry">
            <mxRectangle width="220.1295744680851" height="30" as="alternateBounds" />
          </mxGeometry>
        </mxCell>
        <mxCell id="FC5HgXKpZtwlYjMmK-62-93" value="" style="shape=tableRow;horizontal=0;startSize=0;swimlaneHead=0;swimlaneBody=0;fillColor=none;collapsible=0;dropTarget=0;points=[[0,0.5],[1,0.5]];portConstraint=eastwest;top=0;left=0;right=0;bottom=1;" parent="FC5HgXKpZtwlYjMmK-62-83" vertex="1">
          <mxGeometry y="90" width="250.1295744680851" height="30" as="geometry" />
        </mxCell>
        <mxCell id="FC5HgXKpZtwlYjMmK-62-94" value="FK" style="shape=partialRectangle;connectable=0;fillColor=none;top=0;left=0;bottom=0;right=0;fontStyle=1;overflow=hidden;whiteSpace=wrap;html=1;" parent="FC5HgXKpZtwlYjMmK-62-93" vertex="1">
          <mxGeometry width="30" height="30" as="geometry">
            <mxRectangle width="30" height="30" as="alternateBounds" />
          </mxGeometry>
        </mxCell>
        <mxCell id="FC5HgXKpZtwlYjMmK-62-95" value="int user_id" style="shape=partialRectangle;connectable=0;fillColor=none;top=0;left=0;bottom=0;right=0;align=left;spacingLeft=6;fontStyle=5;overflow=hidden;whiteSpace=wrap;html=1;" parent="FC5HgXKpZtwlYjMmK-62-93" vertex="1">
          <mxGeometry x="30" width="220.1295744680851" height="30" as="geometry">
            <mxRectangle width="220.1295744680851" height="30" as="alternateBounds" />
          </mxGeometry>
        </mxCell>
        <mxCell id="FC5HgXKpZtwlYjMmK-62-96" value="" style="shape=tableRow;horizontal=0;startSize=0;swimlaneHead=0;swimlaneBody=0;fillColor=none;collapsible=0;dropTarget=0;points=[[0,0.5],[1,0.5]];portConstraint=eastwest;top=0;left=0;right=0;bottom=1;" parent="FC5HgXKpZtwlYjMmK-62-83" vertex="1">
          <mxGeometry y="120" width="250.1295744680851" height="30" as="geometry" />
        </mxCell>
        <mxCell id="FC5HgXKpZtwlYjMmK-62-97" value="FK" style="shape=partialRectangle;connectable=0;fillColor=none;top=0;left=0;bottom=0;right=0;fontStyle=1;overflow=hidden;whiteSpace=wrap;html=1;" parent="FC5HgXKpZtwlYjMmK-62-96" vertex="1">
          <mxGeometry width="30" height="30" as="geometry">
            <mxRectangle width="30" height="30" as="alternateBounds" />
          </mxGeometry>
        </mxCell>
        <mxCell id="FC5HgXKpZtwlYjMmK-62-98" value="int&amp;nbsp;reaction_id" style="shape=partialRectangle;connectable=0;fillColor=none;top=0;left=0;bottom=0;right=0;align=left;spacingLeft=6;fontStyle=5;overflow=hidden;whiteSpace=wrap;html=1;" parent="FC5HgXKpZtwlYjMmK-62-96" vertex="1">
          <mxGeometry x="30" width="220.1295744680851" height="30" as="geometry">
            <mxRectangle width="220.1295744680851" height="30" as="alternateBounds" />
          </mxGeometry>
        </mxCell>
        <mxCell id="FC5HgXKpZtwlYjMmK-62-99" value="" style="shape=tableRow;horizontal=0;startSize=0;swimlaneHead=0;swimlaneBody=0;fillColor=none;collapsible=0;dropTarget=0;points=[[0,0.5],[1,0.5]];portConstraint=eastwest;top=0;left=0;right=0;bottom=1;" parent="FC5HgXKpZtwlYjMmK-62-83" vertex="1">
          <mxGeometry y="150" width="250.1295744680851" height="30" as="geometry" />
        </mxCell>
        <mxCell id="FC5HgXKpZtwlYjMmK-62-100" value="FK" style="shape=partialRectangle;connectable=0;fillColor=none;top=0;left=0;bottom=0;right=0;fontStyle=1;overflow=hidden;whiteSpace=wrap;html=1;" parent="FC5HgXKpZtwlYjMmK-62-99" vertex="1">
          <mxGeometry width="30" height="30" as="geometry">
            <mxRectangle width="30" height="30" as="alternateBounds" />
          </mxGeometry>
        </mxCell>
        <mxCell id="FC5HgXKpZtwlYjMmK-62-101" value="int&amp;nbsp;status_id" style="shape=partialRectangle;connectable=0;fillColor=none;top=0;left=0;bottom=0;right=0;align=left;spacingLeft=6;fontStyle=5;overflow=hidden;whiteSpace=wrap;html=1;" parent="FC5HgXKpZtwlYjMmK-62-99" vertex="1">
          <mxGeometry x="30" width="220.1295744680851" height="30" as="geometry">
            <mxRectangle width="220.1295744680851" height="30" as="alternateBounds" />
          </mxGeometry>
        </mxCell>
        <mxCell id="FC5HgXKpZtwlYjMmK-62-103" value="UserEntity" style="shape=table;startSize=30;container=1;collapsible=1;childLayout=tableLayout;fixedRows=1;rowLines=0;fontStyle=1;align=center;resizeLast=1;html=1;" parent="FC5HgXKpZtwlYjMmK-62-6" vertex="1">
          <mxGeometry x="94.09929078014184" y="73.36708860759494" width="250.1295744680851" height="300" as="geometry" />
        </mxCell>
        <mxCell id="FC5HgXKpZtwlYjMmK-62-104" value="" style="shape=tableRow;horizontal=0;startSize=0;swimlaneHead=0;swimlaneBody=0;fillColor=none;collapsible=0;dropTarget=0;points=[[0,0.5],[1,0.5]];portConstraint=eastwest;top=0;left=0;right=0;bottom=1;" parent="FC5HgXKpZtwlYjMmK-62-103" vertex="1">
          <mxGeometry y="30" width="250.1295744680851" height="30" as="geometry" />
        </mxCell>
        <mxCell id="FC5HgXKpZtwlYjMmK-62-105" value="PK" style="shape=partialRectangle;connectable=0;fillColor=none;top=0;left=0;bottom=0;right=0;fontStyle=1;overflow=hidden;whiteSpace=wrap;html=1;" parent="FC5HgXKpZtwlYjMmK-62-104" vertex="1">
          <mxGeometry width="30" height="30" as="geometry">
            <mxRectangle width="30" height="30" as="alternateBounds" />
          </mxGeometry>
        </mxCell>
        <mxCell id="FC5HgXKpZtwlYjMmK-62-106" value="int id" style="shape=partialRectangle;connectable=0;fillColor=none;top=0;left=0;bottom=0;right=0;align=left;spacingLeft=6;fontStyle=5;overflow=hidden;whiteSpace=wrap;html=1;" parent="FC5HgXKpZtwlYjMmK-62-104" vertex="1">
          <mxGeometry x="30" width="220.1295744680851" height="30" as="geometry">
            <mxRectangle width="220.1295744680851" height="30" as="alternateBounds" />
          </mxGeometry>
        </mxCell>
        <mxCell id="FC5HgXKpZtwlYjMmK-62-107" value="" style="shape=tableRow;horizontal=0;startSize=0;swimlaneHead=0;swimlaneBody=0;fillColor=none;collapsible=0;dropTarget=0;points=[[0,0.5],[1,0.5]];portConstraint=eastwest;top=0;left=0;right=0;bottom=0;" parent="FC5HgXKpZtwlYjMmK-62-103" vertex="1">
          <mxGeometry y="60" width="250.1295744680851" height="30" as="geometry" />
        </mxCell>
        <mxCell id="FC5HgXKpZtwlYjMmK-62-108" value="" style="shape=partialRectangle;connectable=0;fillColor=none;top=0;left=0;bottom=0;right=0;editable=1;overflow=hidden;whiteSpace=wrap;html=1;" parent="FC5HgXKpZtwlYjMmK-62-107" vertex="1">
          <mxGeometry width="30" height="30" as="geometry">
            <mxRectangle width="30" height="30" as="alternateBounds" />
          </mxGeometry>
        </mxCell>
        <mxCell id="FC5HgXKpZtwlYjMmK-62-109" value="String email" style="shape=partialRectangle;connectable=0;fillColor=none;top=0;left=0;bottom=0;right=0;align=left;spacingLeft=6;overflow=hidden;whiteSpace=wrap;html=1;" parent="FC5HgXKpZtwlYjMmK-62-107" vertex="1">
          <mxGeometry x="30" width="220.1295744680851" height="30" as="geometry">
            <mxRectangle width="220.1295744680851" height="30" as="alternateBounds" />
          </mxGeometry>
        </mxCell>
        <mxCell id="FC5HgXKpZtwlYjMmK-62-110" value="" style="shape=tableRow;horizontal=0;startSize=0;swimlaneHead=0;swimlaneBody=0;fillColor=none;collapsible=0;dropTarget=0;points=[[0,0.5],[1,0.5]];portConstraint=eastwest;top=0;left=0;right=0;bottom=0;" parent="FC5HgXKpZtwlYjMmK-62-103" vertex="1">
          <mxGeometry y="90" width="250.1295744680851" height="30" as="geometry" />
        </mxCell>
        <mxCell id="FC5HgXKpZtwlYjMmK-62-111" value="" style="shape=partialRectangle;connectable=0;fillColor=none;top=0;left=0;bottom=0;right=0;editable=1;overflow=hidden;whiteSpace=wrap;html=1;" parent="FC5HgXKpZtwlYjMmK-62-110" vertex="1">
          <mxGeometry width="30" height="30" as="geometry">
            <mxRectangle width="30" height="30" as="alternateBounds" />
          </mxGeometry>
        </mxCell>
        <mxCell id="FC5HgXKpZtwlYjMmK-62-112" value="String&amp;nbsp;username" style="shape=partialRectangle;connectable=0;fillColor=none;top=0;left=0;bottom=0;right=0;align=left;spacingLeft=6;overflow=hidden;whiteSpace=wrap;html=1;" parent="FC5HgXKpZtwlYjMmK-62-110" vertex="1">
          <mxGeometry x="30" width="220.1295744680851" height="30" as="geometry">
            <mxRectangle width="220.1295744680851" height="30" as="alternateBounds" />
          </mxGeometry>
        </mxCell>
        <mxCell id="FC5HgXKpZtwlYjMmK-62-125" value="" style="shape=tableRow;horizontal=0;startSize=0;swimlaneHead=0;swimlaneBody=0;fillColor=none;collapsible=0;dropTarget=0;points=[[0,0.5],[1,0.5]];portConstraint=eastwest;top=0;left=0;right=0;bottom=0;" parent="FC5HgXKpZtwlYjMmK-62-103" vertex="1">
          <mxGeometry y="120" width="250.1295744680851" height="30" as="geometry" />
        </mxCell>
        <mxCell id="FC5HgXKpZtwlYjMmK-62-126" value="" style="shape=partialRectangle;connectable=0;fillColor=none;top=0;left=0;bottom=0;right=0;editable=1;overflow=hidden;whiteSpace=wrap;html=1;" parent="FC5HgXKpZtwlYjMmK-62-125" vertex="1">
          <mxGeometry width="30" height="30" as="geometry">
            <mxRectangle width="30" height="30" as="alternateBounds" />
          </mxGeometry>
        </mxCell>
        <mxCell id="FC5HgXKpZtwlYjMmK-62-127" value="String&amp;nbsp;password" style="shape=partialRectangle;connectable=0;fillColor=none;top=0;left=0;bottom=0;right=0;align=left;spacingLeft=6;overflow=hidden;whiteSpace=wrap;html=1;" parent="FC5HgXKpZtwlYjMmK-62-125" vertex="1">
          <mxGeometry x="30" width="220.1295744680851" height="30" as="geometry">
            <mxRectangle width="220.1295744680851" height="30" as="alternateBounds" />
          </mxGeometry>
        </mxCell>
        <mxCell id="FC5HgXKpZtwlYjMmK-62-128" value="" style="shape=tableRow;horizontal=0;startSize=0;swimlaneHead=0;swimlaneBody=0;fillColor=none;collapsible=0;dropTarget=0;points=[[0,0.5],[1,0.5]];portConstraint=eastwest;top=0;left=0;right=0;bottom=0;" parent="FC5HgXKpZtwlYjMmK-62-103" vertex="1">
          <mxGeometry y="150" width="250.1295744680851" height="30" as="geometry" />
        </mxCell>
        <mxCell id="FC5HgXKpZtwlYjMmK-62-129" value="" style="shape=partialRectangle;connectable=0;fillColor=none;top=0;left=0;bottom=0;right=0;editable=1;overflow=hidden;whiteSpace=wrap;html=1;" parent="FC5HgXKpZtwlYjMmK-62-128" vertex="1">
          <mxGeometry width="30" height="30" as="geometry">
            <mxRectangle width="30" height="30" as="alternateBounds" />
          </mxGeometry>
        </mxCell>
        <mxCell id="FC5HgXKpZtwlYjMmK-62-130" value="String&amp;nbsp;firstname" style="shape=partialRectangle;connectable=0;fillColor=none;top=0;left=0;bottom=0;right=0;align=left;spacingLeft=6;overflow=hidden;whiteSpace=wrap;html=1;" parent="FC5HgXKpZtwlYjMmK-62-128" vertex="1">
          <mxGeometry x="30" width="220.1295744680851" height="30" as="geometry">
            <mxRectangle width="220.1295744680851" height="30" as="alternateBounds" />
          </mxGeometry>
        </mxCell>
        <mxCell id="FC5HgXKpZtwlYjMmK-62-131" value="" style="shape=tableRow;horizontal=0;startSize=0;swimlaneHead=0;swimlaneBody=0;fillColor=none;collapsible=0;dropTarget=0;points=[[0,0.5],[1,0.5]];portConstraint=eastwest;top=0;left=0;right=0;bottom=0;" parent="FC5HgXKpZtwlYjMmK-62-103" vertex="1">
          <mxGeometry y="180" width="250.1295744680851" height="30" as="geometry" />
        </mxCell>
        <mxCell id="FC5HgXKpZtwlYjMmK-62-132" value="" style="shape=partialRectangle;connectable=0;fillColor=none;top=0;left=0;bottom=0;right=0;editable=1;overflow=hidden;whiteSpace=wrap;html=1;" parent="FC5HgXKpZtwlYjMmK-62-131" vertex="1">
          <mxGeometry width="30" height="30" as="geometry">
            <mxRectangle width="30" height="30" as="alternateBounds" />
          </mxGeometry>
        </mxCell>
        <mxCell id="FC5HgXKpZtwlYjMmK-62-133" value="String&amp;nbsp;lastname" style="shape=partialRectangle;connectable=0;fillColor=none;top=0;left=0;bottom=0;right=0;align=left;spacingLeft=6;overflow=hidden;whiteSpace=wrap;html=1;" parent="FC5HgXKpZtwlYjMmK-62-131" vertex="1">
          <mxGeometry x="30" width="220.1295744680851" height="30" as="geometry">
            <mxRectangle width="220.1295744680851" height="30" as="alternateBounds" />
          </mxGeometry>
        </mxCell>
        <mxCell id="FC5HgXKpZtwlYjMmK-62-134" value="" style="shape=tableRow;horizontal=0;startSize=0;swimlaneHead=0;swimlaneBody=0;fillColor=none;collapsible=0;dropTarget=0;points=[[0,0.5],[1,0.5]];portConstraint=eastwest;top=0;left=0;right=0;bottom=0;" parent="FC5HgXKpZtwlYjMmK-62-103" vertex="1">
          <mxGeometry y="210" width="250.1295744680851" height="30" as="geometry" />
        </mxCell>
        <mxCell id="FC5HgXKpZtwlYjMmK-62-135" value="" style="shape=partialRectangle;connectable=0;fillColor=none;top=0;left=0;bottom=0;right=0;editable=1;overflow=hidden;whiteSpace=wrap;html=1;" parent="FC5HgXKpZtwlYjMmK-62-134" vertex="1">
          <mxGeometry width="30" height="30" as="geometry">
            <mxRectangle width="30" height="30" as="alternateBounds" />
          </mxGeometry>
        </mxCell>
        <mxCell id="FC5HgXKpZtwlYjMmK-62-136" value="String&amp;nbsp;phone" style="shape=partialRectangle;connectable=0;fillColor=none;top=0;left=0;bottom=0;right=0;align=left;spacingLeft=6;overflow=hidden;whiteSpace=wrap;html=1;" parent="FC5HgXKpZtwlYjMmK-62-134" vertex="1">
          <mxGeometry x="30" width="220.1295744680851" height="30" as="geometry">
            <mxRectangle width="220.1295744680851" height="30" as="alternateBounds" />
          </mxGeometry>
        </mxCell>
        <mxCell id="FC5HgXKpZtwlYjMmK-62-137" value="" style="shape=tableRow;horizontal=0;startSize=0;swimlaneHead=0;swimlaneBody=0;fillColor=none;collapsible=0;dropTarget=0;points=[[0,0.5],[1,0.5]];portConstraint=eastwest;top=0;left=0;right=0;bottom=0;" parent="FC5HgXKpZtwlYjMmK-62-103" vertex="1">
          <mxGeometry y="240" width="250.1295744680851" height="30" as="geometry" />
        </mxCell>
        <mxCell id="FC5HgXKpZtwlYjMmK-62-138" value="" style="shape=partialRectangle;connectable=0;fillColor=none;top=0;left=0;bottom=0;right=0;editable=1;overflow=hidden;whiteSpace=wrap;html=1;" parent="FC5HgXKpZtwlYjMmK-62-137" vertex="1">
          <mxGeometry width="30" height="30" as="geometry">
            <mxRectangle width="30" height="30" as="alternateBounds" />
          </mxGeometry>
        </mxCell>
        <mxCell id="FC5HgXKpZtwlYjMmK-62-139" value="String avatar" style="shape=partialRectangle;connectable=0;fillColor=none;top=0;left=0;bottom=0;right=0;align=left;spacingLeft=6;overflow=hidden;whiteSpace=wrap;html=1;" parent="FC5HgXKpZtwlYjMmK-62-137" vertex="1">
          <mxGeometry x="30" width="220.1295744680851" height="30" as="geometry">
            <mxRectangle width="220.1295744680851" height="30" as="alternateBounds" />
          </mxGeometry>
        </mxCell>
        <mxCell id="FC5HgXKpZtwlYjMmK-62-140" value="" style="shape=tableRow;horizontal=0;startSize=0;swimlaneHead=0;swimlaneBody=0;fillColor=none;collapsible=0;dropTarget=0;points=[[0,0.5],[1,0.5]];portConstraint=eastwest;top=0;left=0;right=0;bottom=0;" parent="FC5HgXKpZtwlYjMmK-62-103" vertex="1">
          <mxGeometry y="270" width="250.1295744680851" height="30" as="geometry" />
        </mxCell>
        <mxCell id="FC5HgXKpZtwlYjMmK-62-141" value="" style="shape=partialRectangle;connectable=0;fillColor=none;top=0;left=0;bottom=0;right=0;editable=1;overflow=hidden;whiteSpace=wrap;html=1;" parent="FC5HgXKpZtwlYjMmK-62-140" vertex="1">
          <mxGeometry width="30" height="30" as="geometry">
            <mxRectangle width="30" height="30" as="alternateBounds" />
          </mxGeometry>
        </mxCell>
        <mxCell id="FC5HgXKpZtwlYjMmK-62-142" value="boolean&amp;nbsp;verify_active" style="shape=partialRectangle;connectable=0;fillColor=none;top=0;left=0;bottom=0;right=0;align=left;spacingLeft=6;overflow=hidden;whiteSpace=wrap;html=1;" parent="FC5HgXKpZtwlYjMmK-62-140" vertex="1">
          <mxGeometry x="30" width="220.1295744680851" height="30" as="geometry">
            <mxRectangle width="220.1295744680851" height="30" as="alternateBounds" />
          </mxGeometry>
        </mxCell>
        <mxCell id="FC5HgXKpZtwlYjMmK-62-273" value="" style="edgeStyle=entityRelationEdgeStyle;fontSize=12;html=1;endArrow=ERoneToMany;rounded=0;exitX=1;exitY=0.5;exitDx=0;exitDy=0;entryX=0;entryY=0.5;entryDx=0;entryDy=0;" parent="FC5HgXKpZtwlYjMmK-62-6" source="FC5HgXKpZtwlYjMmK-62-104" target="FC5HgXKpZtwlYjMmK-62-80" edge="1">
          <mxGeometry width="100" height="100" relative="1" as="geometry">
            <mxPoint x="431.0354609929078" y="370.3291139240506" as="sourcePoint" />
            <mxPoint x="506.92198581560285" y="282.9873417721519" as="targetPoint" />
          </mxGeometry>
        </mxCell>
        <mxCell id="FC5HgXKpZtwlYjMmK-62-274" value="" style="edgeStyle=entityRelationEdgeStyle;fontSize=12;html=1;endArrow=ERoneToMany;rounded=0;exitX=1;exitY=0.5;exitDx=0;exitDy=0;entryX=0;entryY=0.5;entryDx=0;entryDy=0;" parent="FC5HgXKpZtwlYjMmK-62-6" source="FC5HgXKpZtwlYjMmK-62-104" target="FC5HgXKpZtwlYjMmK-62-45" edge="1">
          <mxGeometry width="100" height="100" relative="1" as="geometry">
            <mxPoint x="353.63120567375887" y="123.15189873417721" as="sourcePoint" />
            <mxPoint x="446.2127659574468" y="399.1518987341772" as="targetPoint" />
          </mxGeometry>
        </mxCell>
        <mxCell id="FC5HgXKpZtwlYjMmK-62-275" value="" style="edgeStyle=entityRelationEdgeStyle;fontSize=12;html=1;endArrow=ERoneToMany;rounded=0;exitX=1;exitY=0.5;exitDx=0;exitDy=0;entryX=0;entryY=0.5;entryDx=0;entryDy=0;" parent="FC5HgXKpZtwlYjMmK-62-6" source="FC5HgXKpZtwlYjMmK-62-104" target="FC5HgXKpZtwlYjMmK-62-48" edge="1">
          <mxGeometry width="100" height="100" relative="1" as="geometry">
            <mxPoint x="353.63120567375887" y="123.15189873417721" as="sourcePoint" />
            <mxPoint x="446.2127659574468" y="201.7594936708861" as="targetPoint" />
          </mxGeometry>
        </mxCell>
        <mxCell id="FC5HgXKpZtwlYjMmK-62-276" value="" style="edgeStyle=entityRelationEdgeStyle;fontSize=12;html=1;endArrow=ERoneToMany;rounded=0;exitX=1;exitY=0.5;exitDx=0;exitDy=0;entryX=0;entryY=0.5;entryDx=0;entryDy=0;" parent="FC5HgXKpZtwlYjMmK-62-6" source="FC5HgXKpZtwlYjMmK-62-104" target="FC5HgXKpZtwlYjMmK-62-93" edge="1">
          <mxGeometry width="100" height="100" relative="1" as="geometry">
            <mxPoint x="353.63120567375887" y="123.15189873417721" as="sourcePoint" />
            <mxPoint x="446.2127659574468" y="227.96202531645568" as="targetPoint" />
          </mxGeometry>
        </mxCell>
        <mxCell id="FC5HgXKpZtwlYjMmK-62-277" value="" style="edgeStyle=entityRelationEdgeStyle;fontSize=12;html=1;endArrow=ERoneToMany;rounded=0;entryX=0;entryY=0.5;entryDx=0;entryDy=0;exitX=1;exitY=0.5;exitDx=0;exitDy=0;" parent="FC5HgXKpZtwlYjMmK-62-6" source="FC5HgXKpZtwlYjMmK-62-52" target="FC5HgXKpZtwlYjMmK-62-96" edge="1">
          <mxGeometry width="100" height="100" relative="1" as="geometry">
            <mxPoint x="431.0354609929078" y="527.5443037974684" as="sourcePoint" />
            <mxPoint x="506.92198581560285" y="440.2025316455696" as="targetPoint" />
          </mxGeometry>
        </mxCell>
        <mxCell id="FC5HgXKpZtwlYjMmK-62-278" value="" style="edgeStyle=entityRelationEdgeStyle;fontSize=12;html=1;endArrow=ERoneToMany;rounded=0;entryX=0;entryY=0.5;entryDx=0;entryDy=0;exitX=1;exitY=0.5;exitDx=0;exitDy=0;" parent="FC5HgXKpZtwlYjMmK-62-6" source="FC5HgXKpZtwlYjMmK-62-68" target="FC5HgXKpZtwlYjMmK-62-99" edge="1">
          <mxGeometry width="100" height="100" relative="1" as="geometry">
            <mxPoint x="303.54609929078015" y="527.5443037974684" as="sourcePoint" />
            <mxPoint x="379.4326241134752" y="440.2025316455696" as="targetPoint" />
          </mxGeometry>
        </mxCell>
        <mxCell id="FC5HgXKpZtwlYjMmK-62-144" value="UserEntity" style="shape=table;startSize=30;container=1;collapsible=1;childLayout=tableLayout;fixedRows=1;rowLines=0;fontStyle=1;align=center;resizeLast=1;html=1;" parent="1" vertex="1">
          <mxGeometry x="-1368" y="-252" width="329.61" height="302.29" as="geometry" />
        </mxCell>
        <mxCell id="FC5HgXKpZtwlYjMmK-62-145" value="" style="shape=tableRow;horizontal=0;startSize=0;swimlaneHead=0;swimlaneBody=0;fillColor=none;collapsible=0;dropTarget=0;points=[[0,0.5],[1,0.5]];portConstraint=eastwest;top=0;left=0;right=0;bottom=1;" parent="FC5HgXKpZtwlYjMmK-62-144" vertex="1">
          <mxGeometry y="30" width="329.61" height="30" as="geometry" />
        </mxCell>
        <mxCell id="FC5HgXKpZtwlYjMmK-62-146" value="PK" style="shape=partialRectangle;connectable=0;fillColor=none;top=0;left=0;bottom=0;right=0;fontStyle=1;overflow=hidden;whiteSpace=wrap;html=1;" parent="FC5HgXKpZtwlYjMmK-62-145" vertex="1">
          <mxGeometry width="30" height="30" as="geometry">
            <mxRectangle width="30" height="30" as="alternateBounds" />
          </mxGeometry>
        </mxCell>
        <mxCell id="FC5HgXKpZtwlYjMmK-62-147" value="int id" style="shape=partialRectangle;connectable=0;fillColor=none;top=0;left=0;bottom=0;right=0;align=left;spacingLeft=6;fontStyle=5;overflow=hidden;whiteSpace=wrap;html=1;" parent="FC5HgXKpZtwlYjMmK-62-145" vertex="1">
          <mxGeometry x="30" width="299.61" height="30" as="geometry">
            <mxRectangle width="299.61" height="30" as="alternateBounds" />
          </mxGeometry>
        </mxCell>
        <mxCell id="FC5HgXKpZtwlYjMmK-62-148" value="" style="shape=tableRow;horizontal=0;startSize=0;swimlaneHead=0;swimlaneBody=0;fillColor=none;collapsible=0;dropTarget=0;points=[[0,0.5],[1,0.5]];portConstraint=eastwest;top=0;left=0;right=0;bottom=0;" parent="FC5HgXKpZtwlYjMmK-62-144" vertex="1">
          <mxGeometry y="60" width="329.61" height="30" as="geometry" />
        </mxCell>
        <mxCell id="FC5HgXKpZtwlYjMmK-62-149" value="" style="shape=partialRectangle;connectable=0;fillColor=none;top=0;left=0;bottom=0;right=0;editable=1;overflow=hidden;whiteSpace=wrap;html=1;" parent="FC5HgXKpZtwlYjMmK-62-148" vertex="1">
          <mxGeometry width="30" height="30" as="geometry">
            <mxRectangle width="30" height="30" as="alternateBounds" />
          </mxGeometry>
        </mxCell>
        <mxCell id="FC5HgXKpZtwlYjMmK-62-150" value="String email" style="shape=partialRectangle;connectable=0;fillColor=none;top=0;left=0;bottom=0;right=0;align=left;spacingLeft=6;overflow=hidden;whiteSpace=wrap;html=1;" parent="FC5HgXKpZtwlYjMmK-62-148" vertex="1">
          <mxGeometry x="30" width="299.61" height="30" as="geometry">
            <mxRectangle width="299.61" height="30" as="alternateBounds" />
          </mxGeometry>
        </mxCell>
        <mxCell id="FC5HgXKpZtwlYjMmK-62-151" value="" style="shape=tableRow;horizontal=0;startSize=0;swimlaneHead=0;swimlaneBody=0;fillColor=none;collapsible=0;dropTarget=0;points=[[0,0.5],[1,0.5]];portConstraint=eastwest;top=0;left=0;right=0;bottom=0;" parent="FC5HgXKpZtwlYjMmK-62-144" vertex="1">
          <mxGeometry y="90" width="329.61" height="30" as="geometry" />
        </mxCell>
        <mxCell id="FC5HgXKpZtwlYjMmK-62-152" value="" style="shape=partialRectangle;connectable=0;fillColor=none;top=0;left=0;bottom=0;right=0;editable=1;overflow=hidden;whiteSpace=wrap;html=1;" parent="FC5HgXKpZtwlYjMmK-62-151" vertex="1">
          <mxGeometry width="30" height="30" as="geometry">
            <mxRectangle width="30" height="30" as="alternateBounds" />
          </mxGeometry>
        </mxCell>
        <mxCell id="FC5HgXKpZtwlYjMmK-62-153" value="String&amp;nbsp;username" style="shape=partialRectangle;connectable=0;fillColor=none;top=0;left=0;bottom=0;right=0;align=left;spacingLeft=6;overflow=hidden;whiteSpace=wrap;html=1;" parent="FC5HgXKpZtwlYjMmK-62-151" vertex="1">
          <mxGeometry x="30" width="299.61" height="30" as="geometry">
            <mxRectangle width="299.61" height="30" as="alternateBounds" />
          </mxGeometry>
        </mxCell>
        <mxCell id="FC5HgXKpZtwlYjMmK-62-154" value="" style="shape=tableRow;horizontal=0;startSize=0;swimlaneHead=0;swimlaneBody=0;fillColor=none;collapsible=0;dropTarget=0;points=[[0,0.5],[1,0.5]];portConstraint=eastwest;top=0;left=0;right=0;bottom=0;" parent="FC5HgXKpZtwlYjMmK-62-144" vertex="1">
          <mxGeometry y="120" width="329.61" height="30" as="geometry" />
        </mxCell>
        <mxCell id="FC5HgXKpZtwlYjMmK-62-155" value="" style="shape=partialRectangle;connectable=0;fillColor=none;top=0;left=0;bottom=0;right=0;editable=1;overflow=hidden;whiteSpace=wrap;html=1;" parent="FC5HgXKpZtwlYjMmK-62-154" vertex="1">
          <mxGeometry width="30" height="30" as="geometry">
            <mxRectangle width="30" height="30" as="alternateBounds" />
          </mxGeometry>
        </mxCell>
        <mxCell id="FC5HgXKpZtwlYjMmK-62-156" value="String&amp;nbsp;password" style="shape=partialRectangle;connectable=0;fillColor=none;top=0;left=0;bottom=0;right=0;align=left;spacingLeft=6;overflow=hidden;whiteSpace=wrap;html=1;" parent="FC5HgXKpZtwlYjMmK-62-154" vertex="1">
          <mxGeometry x="30" width="299.61" height="30" as="geometry">
            <mxRectangle width="299.61" height="30" as="alternateBounds" />
          </mxGeometry>
        </mxCell>
        <mxCell id="FC5HgXKpZtwlYjMmK-62-157" value="" style="shape=tableRow;horizontal=0;startSize=0;swimlaneHead=0;swimlaneBody=0;fillColor=none;collapsible=0;dropTarget=0;points=[[0,0.5],[1,0.5]];portConstraint=eastwest;top=0;left=0;right=0;bottom=0;" parent="FC5HgXKpZtwlYjMmK-62-144" vertex="1">
          <mxGeometry y="150" width="329.61" height="30" as="geometry" />
        </mxCell>
        <mxCell id="FC5HgXKpZtwlYjMmK-62-158" value="" style="shape=partialRectangle;connectable=0;fillColor=none;top=0;left=0;bottom=0;right=0;editable=1;overflow=hidden;whiteSpace=wrap;html=1;" parent="FC5HgXKpZtwlYjMmK-62-157" vertex="1">
          <mxGeometry width="30" height="30" as="geometry">
            <mxRectangle width="30" height="30" as="alternateBounds" />
          </mxGeometry>
        </mxCell>
        <mxCell id="FC5HgXKpZtwlYjMmK-62-159" value="String&amp;nbsp;firstname" style="shape=partialRectangle;connectable=0;fillColor=none;top=0;left=0;bottom=0;right=0;align=left;spacingLeft=6;overflow=hidden;whiteSpace=wrap;html=1;" parent="FC5HgXKpZtwlYjMmK-62-157" vertex="1">
          <mxGeometry x="30" width="299.61" height="30" as="geometry">
            <mxRectangle width="299.61" height="30" as="alternateBounds" />
          </mxGeometry>
        </mxCell>
        <mxCell id="FC5HgXKpZtwlYjMmK-62-160" value="" style="shape=tableRow;horizontal=0;startSize=0;swimlaneHead=0;swimlaneBody=0;fillColor=none;collapsible=0;dropTarget=0;points=[[0,0.5],[1,0.5]];portConstraint=eastwest;top=0;left=0;right=0;bottom=0;" parent="FC5HgXKpZtwlYjMmK-62-144" vertex="1">
          <mxGeometry y="180" width="329.61" height="30" as="geometry" />
        </mxCell>
        <mxCell id="FC5HgXKpZtwlYjMmK-62-161" value="" style="shape=partialRectangle;connectable=0;fillColor=none;top=0;left=0;bottom=0;right=0;editable=1;overflow=hidden;whiteSpace=wrap;html=1;" parent="FC5HgXKpZtwlYjMmK-62-160" vertex="1">
          <mxGeometry width="30" height="30" as="geometry">
            <mxRectangle width="30" height="30" as="alternateBounds" />
          </mxGeometry>
        </mxCell>
        <mxCell id="FC5HgXKpZtwlYjMmK-62-162" value="String&amp;nbsp;lastname" style="shape=partialRectangle;connectable=0;fillColor=none;top=0;left=0;bottom=0;right=0;align=left;spacingLeft=6;overflow=hidden;whiteSpace=wrap;html=1;" parent="FC5HgXKpZtwlYjMmK-62-160" vertex="1">
          <mxGeometry x="30" width="299.61" height="30" as="geometry">
            <mxRectangle width="299.61" height="30" as="alternateBounds" />
          </mxGeometry>
        </mxCell>
        <mxCell id="FC5HgXKpZtwlYjMmK-62-163" value="" style="shape=tableRow;horizontal=0;startSize=0;swimlaneHead=0;swimlaneBody=0;fillColor=none;collapsible=0;dropTarget=0;points=[[0,0.5],[1,0.5]];portConstraint=eastwest;top=0;left=0;right=0;bottom=0;" parent="FC5HgXKpZtwlYjMmK-62-144" vertex="1">
          <mxGeometry y="210" width="329.61" height="30" as="geometry" />
        </mxCell>
        <mxCell id="FC5HgXKpZtwlYjMmK-62-164" value="" style="shape=partialRectangle;connectable=0;fillColor=none;top=0;left=0;bottom=0;right=0;editable=1;overflow=hidden;whiteSpace=wrap;html=1;" parent="FC5HgXKpZtwlYjMmK-62-163" vertex="1">
          <mxGeometry width="30" height="30" as="geometry">
            <mxRectangle width="30" height="30" as="alternateBounds" />
          </mxGeometry>
        </mxCell>
        <mxCell id="FC5HgXKpZtwlYjMmK-62-165" value="String&amp;nbsp;phone" style="shape=partialRectangle;connectable=0;fillColor=none;top=0;left=0;bottom=0;right=0;align=left;spacingLeft=6;overflow=hidden;whiteSpace=wrap;html=1;" parent="FC5HgXKpZtwlYjMmK-62-163" vertex="1">
          <mxGeometry x="30" width="299.61" height="30" as="geometry">
            <mxRectangle width="299.61" height="30" as="alternateBounds" />
          </mxGeometry>
        </mxCell>
        <mxCell id="FC5HgXKpZtwlYjMmK-62-166" value="" style="shape=tableRow;horizontal=0;startSize=0;swimlaneHead=0;swimlaneBody=0;fillColor=none;collapsible=0;dropTarget=0;points=[[0,0.5],[1,0.5]];portConstraint=eastwest;top=0;left=0;right=0;bottom=0;" parent="FC5HgXKpZtwlYjMmK-62-144" vertex="1">
          <mxGeometry y="240" width="329.61" height="30" as="geometry" />
        </mxCell>
        <mxCell id="FC5HgXKpZtwlYjMmK-62-167" value="" style="shape=partialRectangle;connectable=0;fillColor=none;top=0;left=0;bottom=0;right=0;editable=1;overflow=hidden;whiteSpace=wrap;html=1;" parent="FC5HgXKpZtwlYjMmK-62-166" vertex="1">
          <mxGeometry width="30" height="30" as="geometry">
            <mxRectangle width="30" height="30" as="alternateBounds" />
          </mxGeometry>
        </mxCell>
        <mxCell id="FC5HgXKpZtwlYjMmK-62-168" value="String avatar" style="shape=partialRectangle;connectable=0;fillColor=none;top=0;left=0;bottom=0;right=0;align=left;spacingLeft=6;overflow=hidden;whiteSpace=wrap;html=1;" parent="FC5HgXKpZtwlYjMmK-62-166" vertex="1">
          <mxGeometry x="30" width="299.61" height="30" as="geometry">
            <mxRectangle width="299.61" height="30" as="alternateBounds" />
          </mxGeometry>
        </mxCell>
        <mxCell id="FC5HgXKpZtwlYjMmK-62-169" value="" style="shape=tableRow;horizontal=0;startSize=0;swimlaneHead=0;swimlaneBody=0;fillColor=none;collapsible=0;dropTarget=0;points=[[0,0.5],[1,0.5]];portConstraint=eastwest;top=0;left=0;right=0;bottom=0;" parent="FC5HgXKpZtwlYjMmK-62-144" vertex="1">
          <mxGeometry y="270" width="329.61" height="30" as="geometry" />
        </mxCell>
        <mxCell id="FC5HgXKpZtwlYjMmK-62-170" value="" style="shape=partialRectangle;connectable=0;fillColor=none;top=0;left=0;bottom=0;right=0;editable=1;overflow=hidden;whiteSpace=wrap;html=1;" parent="FC5HgXKpZtwlYjMmK-62-169" vertex="1">
          <mxGeometry width="30" height="30" as="geometry">
            <mxRectangle width="30" height="30" as="alternateBounds" />
          </mxGeometry>
        </mxCell>
        <mxCell id="FC5HgXKpZtwlYjMmK-62-171" value="boolean&amp;nbsp;verify_active" style="shape=partialRectangle;connectable=0;fillColor=none;top=0;left=0;bottom=0;right=0;align=left;spacingLeft=6;overflow=hidden;whiteSpace=wrap;html=1;" parent="FC5HgXKpZtwlYjMmK-62-169" vertex="1">
          <mxGeometry x="30" width="299.61" height="30" as="geometry">
            <mxRectangle width="299.61" height="30" as="alternateBounds" />
          </mxGeometry>
        </mxCell>
        <mxCell id="FC5HgXKpZtwlYjMmK-62-172" value="NotificationEntity" style="shape=table;startSize=30;container=1;collapsible=1;childLayout=tableLayout;fixedRows=1;rowLines=0;fontStyle=1;align=center;resizeLast=1;html=1;" parent="1" vertex="1">
          <mxGeometry x="-864" y="-360.00000000000006" width="329.61" height="180" as="geometry" />
        </mxCell>
        <mxCell id="FC5HgXKpZtwlYjMmK-62-173" value="" style="shape=tableRow;horizontal=0;startSize=0;swimlaneHead=0;swimlaneBody=0;fillColor=none;collapsible=0;dropTarget=0;points=[[0,0.5],[1,0.5]];portConstraint=eastwest;top=0;left=0;right=0;bottom=1;" parent="FC5HgXKpZtwlYjMmK-62-172" vertex="1">
          <mxGeometry y="30" width="329.61" height="30" as="geometry" />
        </mxCell>
        <mxCell id="FC5HgXKpZtwlYjMmK-62-174" value="PK" style="shape=partialRectangle;connectable=0;fillColor=none;top=0;left=0;bottom=0;right=0;fontStyle=1;overflow=hidden;whiteSpace=wrap;html=1;" parent="FC5HgXKpZtwlYjMmK-62-173" vertex="1">
          <mxGeometry width="30" height="30" as="geometry">
            <mxRectangle width="30" height="30" as="alternateBounds" />
          </mxGeometry>
        </mxCell>
        <mxCell id="FC5HgXKpZtwlYjMmK-62-175" value="int id" style="shape=partialRectangle;connectable=0;fillColor=none;top=0;left=0;bottom=0;right=0;align=left;spacingLeft=6;fontStyle=5;overflow=hidden;whiteSpace=wrap;html=1;" parent="FC5HgXKpZtwlYjMmK-62-173" vertex="1">
          <mxGeometry x="30" width="299.61" height="30" as="geometry">
            <mxRectangle width="299.61" height="30" as="alternateBounds" />
          </mxGeometry>
        </mxCell>
        <mxCell id="FC5HgXKpZtwlYjMmK-62-207" value="" style="shape=tableRow;horizontal=0;startSize=0;swimlaneHead=0;swimlaneBody=0;fillColor=none;collapsible=0;dropTarget=0;points=[[0,0.5],[1,0.5]];portConstraint=eastwest;top=0;left=0;right=0;bottom=0;" parent="FC5HgXKpZtwlYjMmK-62-172" vertex="1">
          <mxGeometry y="60" width="329.61" height="30" as="geometry" />
        </mxCell>
        <mxCell id="FC5HgXKpZtwlYjMmK-62-208" value="" style="shape=partialRectangle;connectable=0;fillColor=none;top=0;left=0;bottom=0;right=0;editable=1;overflow=hidden;whiteSpace=wrap;html=1;" parent="FC5HgXKpZtwlYjMmK-62-207" vertex="1">
          <mxGeometry width="30" height="30" as="geometry">
            <mxRectangle width="30" height="30" as="alternateBounds" />
          </mxGeometry>
        </mxCell>
        <mxCell id="FC5HgXKpZtwlYjMmK-62-209" value="String detail" style="shape=partialRectangle;connectable=0;fillColor=none;top=0;left=0;bottom=0;right=0;align=left;spacingLeft=6;overflow=hidden;whiteSpace=wrap;html=1;" parent="FC5HgXKpZtwlYjMmK-62-207" vertex="1">
          <mxGeometry x="30" width="299.61" height="30" as="geometry">
            <mxRectangle width="299.61" height="30" as="alternateBounds" />
          </mxGeometry>
        </mxCell>
        <mxCell id="FC5HgXKpZtwlYjMmK-62-176" value="" style="shape=tableRow;horizontal=0;startSize=0;swimlaneHead=0;swimlaneBody=0;fillColor=none;collapsible=0;dropTarget=0;points=[[0,0.5],[1,0.5]];portConstraint=eastwest;top=0;left=0;right=0;bottom=0;" parent="FC5HgXKpZtwlYjMmK-62-172" vertex="1">
          <mxGeometry y="90" width="329.61" height="30" as="geometry" />
        </mxCell>
        <mxCell id="FC5HgXKpZtwlYjMmK-62-177" value="" style="shape=partialRectangle;connectable=0;fillColor=none;top=0;left=0;bottom=0;right=0;editable=1;overflow=hidden;whiteSpace=wrap;html=1;" parent="FC5HgXKpZtwlYjMmK-62-176" vertex="1">
          <mxGeometry width="30" height="30" as="geometry">
            <mxRectangle width="30" height="30" as="alternateBounds" />
          </mxGeometry>
        </mxCell>
        <mxCell id="FC5HgXKpZtwlYjMmK-62-178" value="Date created&amp;nbsp;" style="shape=partialRectangle;connectable=0;fillColor=none;top=0;left=0;bottom=0;right=0;align=left;spacingLeft=6;overflow=hidden;whiteSpace=wrap;html=1;" parent="FC5HgXKpZtwlYjMmK-62-176" vertex="1">
          <mxGeometry x="30" width="299.61" height="30" as="geometry">
            <mxRectangle width="299.61" height="30" as="alternateBounds" />
          </mxGeometry>
        </mxCell>
        <mxCell id="FC5HgXKpZtwlYjMmK-62-179" value="" style="shape=tableRow;horizontal=0;startSize=0;swimlaneHead=0;swimlaneBody=0;fillColor=none;collapsible=0;dropTarget=0;points=[[0,0.5],[1,0.5]];portConstraint=eastwest;top=0;left=0;right=0;bottom=1;" parent="FC5HgXKpZtwlYjMmK-62-172" vertex="1">
          <mxGeometry y="120" width="329.61" height="30" as="geometry" />
        </mxCell>
        <mxCell id="FC5HgXKpZtwlYjMmK-62-180" value="FK" style="shape=partialRectangle;connectable=0;fillColor=none;top=0;left=0;bottom=0;right=0;fontStyle=1;overflow=hidden;whiteSpace=wrap;html=1;" parent="FC5HgXKpZtwlYjMmK-62-179" vertex="1">
          <mxGeometry width="30" height="30" as="geometry">
            <mxRectangle width="30" height="30" as="alternateBounds" />
          </mxGeometry>
        </mxCell>
        <mxCell id="FC5HgXKpZtwlYjMmK-62-181" value="int user_id" style="shape=partialRectangle;connectable=0;fillColor=none;top=0;left=0;bottom=0;right=0;align=left;spacingLeft=6;fontStyle=5;overflow=hidden;whiteSpace=wrap;html=1;" parent="FC5HgXKpZtwlYjMmK-62-179" vertex="1">
          <mxGeometry x="30" width="299.61" height="30" as="geometry">
            <mxRectangle width="299.61" height="30" as="alternateBounds" />
          </mxGeometry>
        </mxCell>
        <mxCell id="FC5HgXKpZtwlYjMmK-62-270" value="" style="shape=tableRow;horizontal=0;startSize=0;swimlaneHead=0;swimlaneBody=0;fillColor=none;collapsible=0;dropTarget=0;points=[[0,0.5],[1,0.5]];portConstraint=eastwest;top=0;left=0;right=0;bottom=1;" parent="FC5HgXKpZtwlYjMmK-62-172" vertex="1">
          <mxGeometry y="150" width="329.61" height="30" as="geometry" />
        </mxCell>
        <mxCell id="FC5HgXKpZtwlYjMmK-62-271" value="FK" style="shape=partialRectangle;connectable=0;fillColor=none;top=0;left=0;bottom=0;right=0;fontStyle=1;overflow=hidden;whiteSpace=wrap;html=1;" parent="FC5HgXKpZtwlYjMmK-62-270" vertex="1">
          <mxGeometry width="30" height="30" as="geometry">
            <mxRectangle width="30" height="30" as="alternateBounds" />
          </mxGeometry>
        </mxCell>
        <mxCell id="FC5HgXKpZtwlYjMmK-62-272" value="int user_id" style="shape=partialRectangle;connectable=0;fillColor=none;top=0;left=0;bottom=0;right=0;align=left;spacingLeft=6;fontStyle=5;overflow=hidden;whiteSpace=wrap;html=1;" parent="FC5HgXKpZtwlYjMmK-62-270" vertex="1">
          <mxGeometry x="30" width="299.61" height="30" as="geometry">
            <mxRectangle width="299.61" height="30" as="alternateBounds" />
          </mxGeometry>
        </mxCell>
        <mxCell id="FC5HgXKpZtwlYjMmK-62-188" value="RolesEntity" style="shape=table;startSize=30;container=1;collapsible=1;childLayout=tableLayout;fixedRows=1;rowLines=0;fontStyle=1;align=center;resizeLast=1;html=1;" parent="1" vertex="1">
          <mxGeometry x="-1368" y="126" width="341.61" height="120" as="geometry" />
        </mxCell>
        <mxCell id="FC5HgXKpZtwlYjMmK-62-189" value="" style="shape=tableRow;horizontal=0;startSize=0;swimlaneHead=0;swimlaneBody=0;fillColor=none;collapsible=0;dropTarget=0;points=[[0,0.5],[1,0.5]];portConstraint=eastwest;top=0;left=0;right=0;bottom=1;" parent="FC5HgXKpZtwlYjMmK-62-188" vertex="1">
          <mxGeometry y="30" width="341.61" height="30" as="geometry" />
        </mxCell>
        <mxCell id="FC5HgXKpZtwlYjMmK-62-190" value="PK" style="shape=partialRectangle;connectable=0;fillColor=none;top=0;left=0;bottom=0;right=0;fontStyle=1;overflow=hidden;whiteSpace=wrap;html=1;" parent="FC5HgXKpZtwlYjMmK-62-189" vertex="1">
          <mxGeometry width="30" height="30" as="geometry">
            <mxRectangle width="30" height="30" as="alternateBounds" />
          </mxGeometry>
        </mxCell>
        <mxCell id="FC5HgXKpZtwlYjMmK-62-191" value="int id" style="shape=partialRectangle;connectable=0;fillColor=none;top=0;left=0;bottom=0;right=0;align=left;spacingLeft=6;fontStyle=5;overflow=hidden;whiteSpace=wrap;html=1;" parent="FC5HgXKpZtwlYjMmK-62-189" vertex="1">
          <mxGeometry x="30" width="311.61" height="30" as="geometry">
            <mxRectangle width="311.61" height="30" as="alternateBounds" />
          </mxGeometry>
        </mxCell>
        <mxCell id="FC5HgXKpZtwlYjMmK-62-192" value="" style="shape=tableRow;horizontal=0;startSize=0;swimlaneHead=0;swimlaneBody=0;fillColor=none;collapsible=0;dropTarget=0;points=[[0,0.5],[1,0.5]];portConstraint=eastwest;top=0;left=0;right=0;bottom=0;" parent="FC5HgXKpZtwlYjMmK-62-188" vertex="1">
          <mxGeometry y="60" width="341.61" height="30" as="geometry" />
        </mxCell>
        <mxCell id="FC5HgXKpZtwlYjMmK-62-193" value="" style="shape=partialRectangle;connectable=0;fillColor=none;top=0;left=0;bottom=0;right=0;editable=1;overflow=hidden;whiteSpace=wrap;html=1;" parent="FC5HgXKpZtwlYjMmK-62-192" vertex="1">
          <mxGeometry width="30" height="30" as="geometry">
            <mxRectangle width="30" height="30" as="alternateBounds" />
          </mxGeometry>
        </mxCell>
        <mxCell id="FC5HgXKpZtwlYjMmK-62-194" value="String name" style="shape=partialRectangle;connectable=0;fillColor=none;top=0;left=0;bottom=0;right=0;align=left;spacingLeft=6;overflow=hidden;whiteSpace=wrap;html=1;" parent="FC5HgXKpZtwlYjMmK-62-192" vertex="1">
          <mxGeometry x="30" width="311.61" height="30" as="geometry">
            <mxRectangle width="311.61" height="30" as="alternateBounds" />
          </mxGeometry>
        </mxCell>
        <mxCell id="FC5HgXKpZtwlYjMmK-62-195" value="" style="shape=tableRow;horizontal=0;startSize=0;swimlaneHead=0;swimlaneBody=0;fillColor=none;collapsible=0;dropTarget=0;points=[[0,0.5],[1,0.5]];portConstraint=eastwest;top=0;left=0;right=0;bottom=0;" parent="FC5HgXKpZtwlYjMmK-62-188" vertex="1">
          <mxGeometry y="90" width="341.61" height="30" as="geometry" />
        </mxCell>
        <mxCell id="FC5HgXKpZtwlYjMmK-62-196" value="" style="shape=partialRectangle;connectable=0;fillColor=none;top=0;left=0;bottom=0;right=0;editable=1;overflow=hidden;whiteSpace=wrap;html=1;" parent="FC5HgXKpZtwlYjMmK-62-195" vertex="1">
          <mxGeometry width="30" height="30" as="geometry">
            <mxRectangle width="30" height="30" as="alternateBounds" />
          </mxGeometry>
        </mxCell>
        <mxCell id="FC5HgXKpZtwlYjMmK-62-197" value="String&amp;nbsp;description" style="shape=partialRectangle;connectable=0;fillColor=none;top=0;left=0;bottom=0;right=0;align=left;spacingLeft=6;overflow=hidden;whiteSpace=wrap;html=1;" parent="FC5HgXKpZtwlYjMmK-62-195" vertex="1">
          <mxGeometry x="30" width="311.61" height="30" as="geometry">
            <mxRectangle width="311.61" height="30" as="alternateBounds" />
          </mxGeometry>
        </mxCell>
        <mxCell id="FC5HgXKpZtwlYjMmK-62-210" value="UserRoleEntity" style="shape=table;startSize=30;container=1;collapsible=1;childLayout=tableLayout;fixedRows=1;rowLines=0;fontStyle=1;align=center;resizeLast=1;html=1;" parent="1" vertex="1">
          <mxGeometry x="-864" y="156" width="329.61" height="96" as="geometry" />
        </mxCell>
        <mxCell id="FC5HgXKpZtwlYjMmK-62-257" value="" style="shape=tableRow;horizontal=0;startSize=0;swimlaneHead=0;swimlaneBody=0;fillColor=none;collapsible=0;dropTarget=0;points=[[0,0.5],[1,0.5]];portConstraint=eastwest;top=0;left=0;right=0;bottom=1;" parent="FC5HgXKpZtwlYjMmK-62-210" vertex="1">
          <mxGeometry y="30" width="329.61" height="30" as="geometry" />
        </mxCell>
        <mxCell id="FC5HgXKpZtwlYjMmK-62-258" value="PK - FK" style="shape=partialRectangle;connectable=0;fillColor=none;top=0;left=0;bottom=0;right=0;fontStyle=1;overflow=hidden;whiteSpace=wrap;html=1;" parent="FC5HgXKpZtwlYjMmK-62-257" vertex="1">
          <mxGeometry width="48" height="30" as="geometry">
            <mxRectangle width="48" height="30" as="alternateBounds" />
          </mxGeometry>
        </mxCell>
        <mxCell id="FC5HgXKpZtwlYjMmK-62-259" value="int&amp;nbsp;users_id" style="shape=partialRectangle;connectable=0;fillColor=none;top=0;left=0;bottom=0;right=0;align=left;spacingLeft=6;fontStyle=5;overflow=hidden;whiteSpace=wrap;html=1;" parent="FC5HgXKpZtwlYjMmK-62-257" vertex="1">
          <mxGeometry x="48" width="281.61" height="30" as="geometry">
            <mxRectangle width="281.61" height="30" as="alternateBounds" />
          </mxGeometry>
        </mxCell>
        <mxCell id="FC5HgXKpZtwlYjMmK-62-260" value="" style="shape=tableRow;horizontal=0;startSize=0;swimlaneHead=0;swimlaneBody=0;fillColor=none;collapsible=0;dropTarget=0;points=[[0,0.5],[1,0.5]];portConstraint=eastwest;top=0;left=0;right=0;bottom=1;" parent="FC5HgXKpZtwlYjMmK-62-210" vertex="1">
          <mxGeometry y="60" width="329.61" height="36" as="geometry" />
        </mxCell>
        <mxCell id="FC5HgXKpZtwlYjMmK-62-261" value="PK - FK" style="shape=partialRectangle;connectable=0;fillColor=none;top=0;left=0;bottom=0;right=0;fontStyle=1;overflow=hidden;whiteSpace=wrap;html=1;" parent="FC5HgXKpZtwlYjMmK-62-260" vertex="1">
          <mxGeometry width="48" height="36" as="geometry">
            <mxRectangle width="48" height="36" as="alternateBounds" />
          </mxGeometry>
        </mxCell>
        <mxCell id="FC5HgXKpZtwlYjMmK-62-262" value="int&amp;nbsp;roles_id" style="shape=partialRectangle;connectable=0;fillColor=none;top=0;left=0;bottom=0;right=0;align=left;spacingLeft=6;fontStyle=5;overflow=hidden;whiteSpace=wrap;html=1;" parent="FC5HgXKpZtwlYjMmK-62-260" vertex="1">
          <mxGeometry x="48" width="281.61" height="36" as="geometry">
            <mxRectangle width="281.61" height="36" as="alternateBounds" />
          </mxGeometry>
        </mxCell>
        <mxCell id="FC5HgXKpZtwlYjMmK-62-229" value="TokensEntity" style="shape=table;startSize=30;container=1;collapsible=1;childLayout=tableLayout;fixedRows=1;rowLines=0;fontStyle=1;align=center;resizeLast=1;html=1;" parent="1" vertex="1">
          <mxGeometry x="-864" y="-96.00000000000006" width="329.61" height="210" as="geometry" />
        </mxCell>
        <mxCell id="FC5HgXKpZtwlYjMmK-62-230" value="" style="shape=tableRow;horizontal=0;startSize=0;swimlaneHead=0;swimlaneBody=0;fillColor=none;collapsible=0;dropTarget=0;points=[[0,0.5],[1,0.5]];portConstraint=eastwest;top=0;left=0;right=0;bottom=1;" parent="FC5HgXKpZtwlYjMmK-62-229" vertex="1">
          <mxGeometry y="30" width="329.61" height="30" as="geometry" />
        </mxCell>
        <mxCell id="FC5HgXKpZtwlYjMmK-62-231" value="PK - FK" style="shape=partialRectangle;connectable=0;fillColor=none;top=0;left=0;bottom=0;right=0;fontStyle=1;overflow=hidden;whiteSpace=wrap;html=1;" parent="FC5HgXKpZtwlYjMmK-62-230" vertex="1">
          <mxGeometry width="47" height="30" as="geometry">
            <mxRectangle width="47" height="30" as="alternateBounds" />
          </mxGeometry>
        </mxCell>
        <mxCell id="FC5HgXKpZtwlYjMmK-62-232" value="int&amp;nbsp;id_users" style="shape=partialRectangle;connectable=0;fillColor=none;top=0;left=0;bottom=0;right=0;align=left;spacingLeft=6;fontStyle=5;overflow=hidden;whiteSpace=wrap;html=1;" parent="FC5HgXKpZtwlYjMmK-62-230" vertex="1">
          <mxGeometry x="47" width="282.61" height="30" as="geometry">
            <mxRectangle width="282.61" height="30" as="alternateBounds" />
          </mxGeometry>
        </mxCell>
        <mxCell id="FC5HgXKpZtwlYjMmK-62-233" value="" style="shape=tableRow;horizontal=0;startSize=0;swimlaneHead=0;swimlaneBody=0;fillColor=none;collapsible=0;dropTarget=0;points=[[0,0.5],[1,0.5]];portConstraint=eastwest;top=0;left=0;right=0;bottom=0;" parent="FC5HgXKpZtwlYjMmK-62-229" vertex="1">
          <mxGeometry y="60" width="329.61" height="30" as="geometry" />
        </mxCell>
        <mxCell id="FC5HgXKpZtwlYjMmK-62-234" value="" style="shape=partialRectangle;connectable=0;fillColor=none;top=0;left=0;bottom=0;right=0;editable=1;overflow=hidden;whiteSpace=wrap;html=1;" parent="FC5HgXKpZtwlYjMmK-62-233" vertex="1">
          <mxGeometry width="47" height="30" as="geometry">
            <mxRectangle width="47" height="30" as="alternateBounds" />
          </mxGeometry>
        </mxCell>
        <mxCell id="FC5HgXKpZtwlYjMmK-62-235" value="String&amp;nbsp;token" style="shape=partialRectangle;connectable=0;fillColor=none;top=0;left=0;bottom=0;right=0;align=left;spacingLeft=6;overflow=hidden;whiteSpace=wrap;html=1;" parent="FC5HgXKpZtwlYjMmK-62-233" vertex="1">
          <mxGeometry x="47" width="282.61" height="30" as="geometry">
            <mxRectangle width="282.61" height="30" as="alternateBounds" />
          </mxGeometry>
        </mxCell>
        <mxCell id="FC5HgXKpZtwlYjMmK-62-242" value="" style="shape=tableRow;horizontal=0;startSize=0;swimlaneHead=0;swimlaneBody=0;fillColor=none;collapsible=0;dropTarget=0;points=[[0,0.5],[1,0.5]];portConstraint=eastwest;top=0;left=0;right=0;bottom=0;" parent="FC5HgXKpZtwlYjMmK-62-229" vertex="1">
          <mxGeometry y="90" width="329.61" height="30" as="geometry" />
        </mxCell>
        <mxCell id="FC5HgXKpZtwlYjMmK-62-243" value="" style="shape=partialRectangle;connectable=0;fillColor=none;top=0;left=0;bottom=0;right=0;editable=1;overflow=hidden;whiteSpace=wrap;html=1;" parent="FC5HgXKpZtwlYjMmK-62-242" vertex="1">
          <mxGeometry width="47" height="30" as="geometry">
            <mxRectangle width="47" height="30" as="alternateBounds" />
          </mxGeometry>
        </mxCell>
        <mxCell id="FC5HgXKpZtwlYjMmK-62-244" value="String&amp;nbsp;token_refresh" style="shape=partialRectangle;connectable=0;fillColor=none;top=0;left=0;bottom=0;right=0;align=left;spacingLeft=6;overflow=hidden;whiteSpace=wrap;html=1;" parent="FC5HgXKpZtwlYjMmK-62-242" vertex="1">
          <mxGeometry x="47" width="282.61" height="30" as="geometry">
            <mxRectangle width="282.61" height="30" as="alternateBounds" />
          </mxGeometry>
        </mxCell>
        <mxCell id="FC5HgXKpZtwlYjMmK-62-245" value="" style="shape=tableRow;horizontal=0;startSize=0;swimlaneHead=0;swimlaneBody=0;fillColor=none;collapsible=0;dropTarget=0;points=[[0,0.5],[1,0.5]];portConstraint=eastwest;top=0;left=0;right=0;bottom=0;" parent="FC5HgXKpZtwlYjMmK-62-229" vertex="1">
          <mxGeometry y="120" width="329.61" height="30" as="geometry" />
        </mxCell>
        <mxCell id="FC5HgXKpZtwlYjMmK-62-246" value="" style="shape=partialRectangle;connectable=0;fillColor=none;top=0;left=0;bottom=0;right=0;editable=1;overflow=hidden;whiteSpace=wrap;html=1;" parent="FC5HgXKpZtwlYjMmK-62-245" vertex="1">
          <mxGeometry width="47" height="30" as="geometry">
            <mxRectangle width="47" height="30" as="alternateBounds" />
          </mxGeometry>
        </mxCell>
        <mxCell id="FC5HgXKpZtwlYjMmK-62-247" value="String&amp;nbsp;token_type" style="shape=partialRectangle;connectable=0;fillColor=none;top=0;left=0;bottom=0;right=0;align=left;spacingLeft=6;overflow=hidden;whiteSpace=wrap;html=1;" parent="FC5HgXKpZtwlYjMmK-62-245" vertex="1">
          <mxGeometry x="47" width="282.61" height="30" as="geometry">
            <mxRectangle width="282.61" height="30" as="alternateBounds" />
          </mxGeometry>
        </mxCell>
        <mxCell id="FC5HgXKpZtwlYjMmK-62-248" value="" style="shape=tableRow;horizontal=0;startSize=0;swimlaneHead=0;swimlaneBody=0;fillColor=none;collapsible=0;dropTarget=0;points=[[0,0.5],[1,0.5]];portConstraint=eastwest;top=0;left=0;right=0;bottom=0;" parent="FC5HgXKpZtwlYjMmK-62-229" vertex="1">
          <mxGeometry y="150" width="329.61" height="30" as="geometry" />
        </mxCell>
        <mxCell id="FC5HgXKpZtwlYjMmK-62-249" value="" style="shape=partialRectangle;connectable=0;fillColor=none;top=0;left=0;bottom=0;right=0;editable=1;overflow=hidden;whiteSpace=wrap;html=1;" parent="FC5HgXKpZtwlYjMmK-62-248" vertex="1">
          <mxGeometry width="47" height="30" as="geometry">
            <mxRectangle width="47" height="30" as="alternateBounds" />
          </mxGeometry>
        </mxCell>
        <mxCell id="FC5HgXKpZtwlYjMmK-62-250" value="boolean&amp;nbsp;is_revoked" style="shape=partialRectangle;connectable=0;fillColor=none;top=0;left=0;bottom=0;right=0;align=left;spacingLeft=6;overflow=hidden;whiteSpace=wrap;html=1;" parent="FC5HgXKpZtwlYjMmK-62-248" vertex="1">
          <mxGeometry x="47" width="282.61" height="30" as="geometry">
            <mxRectangle width="282.61" height="30" as="alternateBounds" />
          </mxGeometry>
        </mxCell>
        <mxCell id="FC5HgXKpZtwlYjMmK-62-254" value="" style="shape=tableRow;horizontal=0;startSize=0;swimlaneHead=0;swimlaneBody=0;fillColor=none;collapsible=0;dropTarget=0;points=[[0,0.5],[1,0.5]];portConstraint=eastwest;top=0;left=0;right=0;bottom=0;" parent="FC5HgXKpZtwlYjMmK-62-229" vertex="1">
          <mxGeometry y="180" width="329.61" height="30" as="geometry" />
        </mxCell>
        <mxCell id="FC5HgXKpZtwlYjMmK-62-255" value="" style="shape=partialRectangle;connectable=0;fillColor=none;top=0;left=0;bottom=0;right=0;editable=1;overflow=hidden;whiteSpace=wrap;html=1;" parent="FC5HgXKpZtwlYjMmK-62-254" vertex="1">
          <mxGeometry width="47" height="30" as="geometry">
            <mxRectangle width="47" height="30" as="alternateBounds" />
          </mxGeometry>
        </mxCell>
        <mxCell id="FC5HgXKpZtwlYjMmK-62-256" value="boolean&amp;nbsp;is_expired" style="shape=partialRectangle;connectable=0;fillColor=none;top=0;left=0;bottom=0;right=0;align=left;spacingLeft=6;overflow=hidden;whiteSpace=wrap;html=1;" parent="FC5HgXKpZtwlYjMmK-62-254" vertex="1">
          <mxGeometry x="47" width="282.61" height="30" as="geometry">
            <mxRectangle width="282.61" height="30" as="alternateBounds" />
          </mxGeometry>
        </mxCell>
        <mxCell id="FC5HgXKpZtwlYjMmK-62-263" value="" style="edgeStyle=entityRelationEdgeStyle;fontSize=12;html=1;endArrow=ERoneToMany;rounded=0;exitX=1;exitY=0.5;exitDx=0;exitDy=0;entryX=0;entryY=0.5;entryDx=0;entryDy=0;" parent="1" source="FC5HgXKpZtwlYjMmK-62-145" target="FC5HgXKpZtwlYjMmK-62-257" edge="1">
          <mxGeometry width="100" height="100" relative="1" as="geometry">
            <mxPoint x="-984" y="-50.86" as="sourcePoint" />
            <mxPoint x="-884" y="-150.86" as="targetPoint" />
          </mxGeometry>
        </mxCell>
        <mxCell id="FC5HgXKpZtwlYjMmK-62-266" value="" style="edgeStyle=entityRelationEdgeStyle;fontSize=12;html=1;endArrow=ERoneToMany;rounded=0;exitX=1;exitY=0.5;exitDx=0;exitDy=0;entryX=0;entryY=0.5;entryDx=0;entryDy=0;" parent="1" source="FC5HgXKpZtwlYjMmK-62-189" target="FC5HgXKpZtwlYjMmK-62-260" edge="1">
          <mxGeometry width="100" height="100" relative="1" as="geometry">
            <mxPoint x="-1026" y="-195" as="sourcePoint" />
            <mxPoint x="-743" y="-219" as="targetPoint" />
          </mxGeometry>
        </mxCell>
        <mxCell id="FC5HgXKpZtwlYjMmK-62-268" value="" style="edgeStyle=entityRelationEdgeStyle;fontSize=12;html=1;endArrow=ERoneToMany;rounded=0;exitX=1;exitY=0.5;exitDx=0;exitDy=0;" parent="1" source="FC5HgXKpZtwlYjMmK-62-145" target="FC5HgXKpZtwlYjMmK-62-230" edge="1">
          <mxGeometry width="100" height="100" relative="1" as="geometry">
            <mxPoint x="-972" y="-312" as="sourcePoint" />
            <mxPoint x="-792" y="45" as="targetPoint" />
          </mxGeometry>
        </mxCell>
        <mxCell id="FC5HgXKpZtwlYjMmK-62-269" value="" style="edgeStyle=entityRelationEdgeStyle;fontSize=12;html=1;endArrow=ERoneToMany;rounded=0;exitX=1;exitY=0.5;exitDx=0;exitDy=0;entryX=0;entryY=0.5;entryDx=0;entryDy=0;" parent="1" source="FC5HgXKpZtwlYjMmK-62-145" target="FC5HgXKpZtwlYjMmK-62-179" edge="1">
          <mxGeometry width="100" height="100" relative="1" as="geometry">
            <mxPoint x="-1026" y="-195" as="sourcePoint" />
            <mxPoint x="-852" y="-124" as="targetPoint" />
          </mxGeometry>
        </mxCell>
        <mxCell id="FC5HgXKpZtwlYjMmK-62-279" value="&lt;b style=&quot;border-color: var(--border-color);&quot;&gt;&lt;font style=&quot;font-size: 30px;&quot;&gt;Authen Service 8081 Database&lt;/font&gt;&lt;/b&gt;" style="text;html=1;strokeColor=none;fillColor=none;align=center;verticalAlign=middle;whiteSpace=wrap;rounded=0;" parent="1" vertex="1">
          <mxGeometry x="-1583.9978723404256" y="-383.9958276300648" width="832.3185271966528" height="52.062200956937794" as="geometry" />
        </mxCell>
        <mxCell id="FC5HgXKpZtwlYjMmK-62-280" value="" style="rounded=0;whiteSpace=wrap;html=1;" parent="1" vertex="1">
          <mxGeometry x="-828" y="-840" width="468" height="396" as="geometry" />
        </mxCell>
        <mxCell id="FC5HgXKpZtwlYjMmK-62-281" value="File_DataEntity" style="shape=table;startSize=30;container=1;collapsible=1;childLayout=tableLayout;fixedRows=1;rowLines=0;fontStyle=1;align=center;resizeLast=1;html=1;" parent="1" vertex="1">
          <mxGeometry x="-780" y="-732" width="329.61" height="242.29000000000002" as="geometry" />
        </mxCell>
        <mxCell id="FC5HgXKpZtwlYjMmK-62-282" value="" style="shape=tableRow;horizontal=0;startSize=0;swimlaneHead=0;swimlaneBody=0;fillColor=none;collapsible=0;dropTarget=0;points=[[0,0.5],[1,0.5]];portConstraint=eastwest;top=0;left=0;right=0;bottom=1;" parent="FC5HgXKpZtwlYjMmK-62-281" vertex="1">
          <mxGeometry y="30" width="329.61" height="30" as="geometry" />
        </mxCell>
        <mxCell id="FC5HgXKpZtwlYjMmK-62-283" value="PK" style="shape=partialRectangle;connectable=0;fillColor=none;top=0;left=0;bottom=0;right=0;fontStyle=1;overflow=hidden;whiteSpace=wrap;html=1;" parent="FC5HgXKpZtwlYjMmK-62-282" vertex="1">
          <mxGeometry width="30" height="30" as="geometry">
            <mxRectangle width="30" height="30" as="alternateBounds" />
          </mxGeometry>
        </mxCell>
        <mxCell id="FC5HgXKpZtwlYjMmK-62-284" value="int id" style="shape=partialRectangle;connectable=0;fillColor=none;top=0;left=0;bottom=0;right=0;align=left;spacingLeft=6;fontStyle=5;overflow=hidden;whiteSpace=wrap;html=1;" parent="FC5HgXKpZtwlYjMmK-62-282" vertex="1">
          <mxGeometry x="30" width="299.61" height="30" as="geometry">
            <mxRectangle width="299.61" height="30" as="alternateBounds" />
          </mxGeometry>
        </mxCell>
        <mxCell id="FC5HgXKpZtwlYjMmK-62-288" value="" style="shape=tableRow;horizontal=0;startSize=0;swimlaneHead=0;swimlaneBody=0;fillColor=none;collapsible=0;dropTarget=0;points=[[0,0.5],[1,0.5]];portConstraint=eastwest;top=0;left=0;right=0;bottom=0;" parent="FC5HgXKpZtwlYjMmK-62-281" vertex="1">
          <mxGeometry y="60" width="329.61" height="30" as="geometry" />
        </mxCell>
        <mxCell id="FC5HgXKpZtwlYjMmK-62-289" value="" style="shape=partialRectangle;connectable=0;fillColor=none;top=0;left=0;bottom=0;right=0;editable=1;overflow=hidden;whiteSpace=wrap;html=1;" parent="FC5HgXKpZtwlYjMmK-62-288" vertex="1">
          <mxGeometry width="30" height="30" as="geometry">
            <mxRectangle width="30" height="30" as="alternateBounds" />
          </mxGeometry>
        </mxCell>
        <mxCell id="FC5HgXKpZtwlYjMmK-62-290" value="String&amp;nbsp;name" style="shape=partialRectangle;connectable=0;fillColor=none;top=0;left=0;bottom=0;right=0;align=left;spacingLeft=6;overflow=hidden;whiteSpace=wrap;html=1;" parent="FC5HgXKpZtwlYjMmK-62-288" vertex="1">
          <mxGeometry x="30" width="299.61" height="30" as="geometry">
            <mxRectangle width="299.61" height="30" as="alternateBounds" />
          </mxGeometry>
        </mxCell>
        <mxCell id="FC5HgXKpZtwlYjMmK-62-291" value="" style="shape=tableRow;horizontal=0;startSize=0;swimlaneHead=0;swimlaneBody=0;fillColor=none;collapsible=0;dropTarget=0;points=[[0,0.5],[1,0.5]];portConstraint=eastwest;top=0;left=0;right=0;bottom=0;" parent="FC5HgXKpZtwlYjMmK-62-281" vertex="1">
          <mxGeometry y="90" width="329.61" height="30" as="geometry" />
        </mxCell>
        <mxCell id="FC5HgXKpZtwlYjMmK-62-292" value="" style="shape=partialRectangle;connectable=0;fillColor=none;top=0;left=0;bottom=0;right=0;editable=1;overflow=hidden;whiteSpace=wrap;html=1;" parent="FC5HgXKpZtwlYjMmK-62-291" vertex="1">
          <mxGeometry width="30" height="30" as="geometry">
            <mxRectangle width="30" height="30" as="alternateBounds" />
          </mxGeometry>
        </mxCell>
        <mxCell id="FC5HgXKpZtwlYjMmK-62-293" value="String&amp;nbsp;type" style="shape=partialRectangle;connectable=0;fillColor=none;top=0;left=0;bottom=0;right=0;align=left;spacingLeft=6;overflow=hidden;whiteSpace=wrap;html=1;" parent="FC5HgXKpZtwlYjMmK-62-291" vertex="1">
          <mxGeometry x="30" width="299.61" height="30" as="geometry">
            <mxRectangle width="299.61" height="30" as="alternateBounds" />
          </mxGeometry>
        </mxCell>
        <mxCell id="FC5HgXKpZtwlYjMmK-62-294" value="" style="shape=tableRow;horizontal=0;startSize=0;swimlaneHead=0;swimlaneBody=0;fillColor=none;collapsible=0;dropTarget=0;points=[[0,0.5],[1,0.5]];portConstraint=eastwest;top=0;left=0;right=0;bottom=0;" parent="FC5HgXKpZtwlYjMmK-62-281" vertex="1">
          <mxGeometry y="120" width="329.61" height="30" as="geometry" />
        </mxCell>
        <mxCell id="FC5HgXKpZtwlYjMmK-62-295" value="" style="shape=partialRectangle;connectable=0;fillColor=none;top=0;left=0;bottom=0;right=0;editable=1;overflow=hidden;whiteSpace=wrap;html=1;" parent="FC5HgXKpZtwlYjMmK-62-294" vertex="1">
          <mxGeometry width="30" height="30" as="geometry">
            <mxRectangle width="30" height="30" as="alternateBounds" />
          </mxGeometry>
        </mxCell>
        <mxCell id="FC5HgXKpZtwlYjMmK-62-296" value="String&amp;nbsp;filepath" style="shape=partialRectangle;connectable=0;fillColor=none;top=0;left=0;bottom=0;right=0;align=left;spacingLeft=6;overflow=hidden;whiteSpace=wrap;html=1;" parent="FC5HgXKpZtwlYjMmK-62-294" vertex="1">
          <mxGeometry x="30" width="299.61" height="30" as="geometry">
            <mxRectangle width="299.61" height="30" as="alternateBounds" />
          </mxGeometry>
        </mxCell>
        <mxCell id="FC5HgXKpZtwlYjMmK-62-297" value="" style="shape=tableRow;horizontal=0;startSize=0;swimlaneHead=0;swimlaneBody=0;fillColor=none;collapsible=0;dropTarget=0;points=[[0,0.5],[1,0.5]];portConstraint=eastwest;top=0;left=0;right=0;bottom=0;" parent="FC5HgXKpZtwlYjMmK-62-281" vertex="1">
          <mxGeometry y="150" width="329.61" height="30" as="geometry" />
        </mxCell>
        <mxCell id="FC5HgXKpZtwlYjMmK-62-298" value="" style="shape=partialRectangle;connectable=0;fillColor=none;top=0;left=0;bottom=0;right=0;editable=1;overflow=hidden;whiteSpace=wrap;html=1;" parent="FC5HgXKpZtwlYjMmK-62-297" vertex="1">
          <mxGeometry width="30" height="30" as="geometry">
            <mxRectangle width="30" height="30" as="alternateBounds" />
          </mxGeometry>
        </mxCell>
        <mxCell id="FC5HgXKpZtwlYjMmK-62-299" value="int&amp;nbsp;user_id" style="shape=partialRectangle;connectable=0;fillColor=none;top=0;left=0;bottom=0;right=0;align=left;spacingLeft=6;overflow=hidden;whiteSpace=wrap;html=1;" parent="FC5HgXKpZtwlYjMmK-62-297" vertex="1">
          <mxGeometry x="30" width="299.61" height="30" as="geometry">
            <mxRectangle width="299.61" height="30" as="alternateBounds" />
          </mxGeometry>
        </mxCell>
        <mxCell id="FC5HgXKpZtwlYjMmK-62-367" value="" style="shape=tableRow;horizontal=0;startSize=0;swimlaneHead=0;swimlaneBody=0;fillColor=none;collapsible=0;dropTarget=0;points=[[0,0.5],[1,0.5]];portConstraint=eastwest;top=0;left=0;right=0;bottom=0;" parent="FC5HgXKpZtwlYjMmK-62-281" vertex="1">
          <mxGeometry y="180" width="329.61" height="30" as="geometry" />
        </mxCell>
        <mxCell id="FC5HgXKpZtwlYjMmK-62-368" value="" style="shape=partialRectangle;connectable=0;fillColor=none;top=0;left=0;bottom=0;right=0;editable=1;overflow=hidden;whiteSpace=wrap;html=1;" parent="FC5HgXKpZtwlYjMmK-62-367" vertex="1">
          <mxGeometry width="30" height="30" as="geometry">
            <mxRectangle width="30" height="30" as="alternateBounds" />
          </mxGeometry>
        </mxCell>
        <mxCell id="FC5HgXKpZtwlYjMmK-62-369" value="int&amp;nbsp;mess_id" style="shape=partialRectangle;connectable=0;fillColor=none;top=0;left=0;bottom=0;right=0;align=left;spacingLeft=6;overflow=hidden;whiteSpace=wrap;html=1;" parent="FC5HgXKpZtwlYjMmK-62-367" vertex="1">
          <mxGeometry x="30" width="299.61" height="30" as="geometry">
            <mxRectangle width="299.61" height="30" as="alternateBounds" />
          </mxGeometry>
        </mxCell>
        <mxCell id="FC5HgXKpZtwlYjMmK-62-370" value="" style="shape=tableRow;horizontal=0;startSize=0;swimlaneHead=0;swimlaneBody=0;fillColor=none;collapsible=0;dropTarget=0;points=[[0,0.5],[1,0.5]];portConstraint=eastwest;top=0;left=0;right=0;bottom=0;" parent="FC5HgXKpZtwlYjMmK-62-281" vertex="1">
          <mxGeometry y="210" width="329.61" height="30" as="geometry" />
        </mxCell>
        <mxCell id="FC5HgXKpZtwlYjMmK-62-371" value="" style="shape=partialRectangle;connectable=0;fillColor=none;top=0;left=0;bottom=0;right=0;editable=1;overflow=hidden;whiteSpace=wrap;html=1;" parent="FC5HgXKpZtwlYjMmK-62-370" vertex="1">
          <mxGeometry width="30" height="30" as="geometry">
            <mxRectangle width="30" height="30" as="alternateBounds" />
          </mxGeometry>
        </mxCell>
        <mxCell id="FC5HgXKpZtwlYjMmK-62-372" value="int&amp;nbsp;status_id" style="shape=partialRectangle;connectable=0;fillColor=none;top=0;left=0;bottom=0;right=0;align=left;spacingLeft=6;overflow=hidden;whiteSpace=wrap;html=1;" parent="FC5HgXKpZtwlYjMmK-62-370" vertex="1">
          <mxGeometry x="30" width="299.61" height="30" as="geometry">
            <mxRectangle width="299.61" height="30" as="alternateBounds" />
          </mxGeometry>
        </mxCell>
        <mxCell id="FC5HgXKpZtwlYjMmK-62-365" value="&lt;b style=&quot;border-color: var(--border-color);&quot;&gt;&lt;font style=&quot;font-size: 30px;&quot;&gt;Upload File Database&lt;/font&gt;&lt;/b&gt;" style="text;html=1;strokeColor=none;fillColor=none;align=center;verticalAlign=middle;whiteSpace=wrap;rounded=0;" parent="1" vertex="1">
          <mxGeometry x="-828" y="-816" width="444" height="52.06" as="geometry" />
        </mxCell>
      </root>
    </mxGraphModel>
  </diagram>
</mxfile>
